<?xml version="1.0" encoding="UTF-8" standalone="no"?>
<!-- Created with Inkscape (http://www.inkscape.org/) -->
<svg xmlns:inkscape="http://www.inkscape.org/namespaces/inkscape" xmlns:sodipodi="http://sodipodi.sourceforge.net/DTD/sodipodi-0.dtd" xmlns="http://www.w3.org/2000/svg" xmlns:svg="http://www.w3.org/2000/svg" width="120" height="40" viewBox="0 0 31.749999 10.583333" version="1.1" id="svg5" xml:space="preserve" sodipodi:docname="bema3.svg" inkscape:version="1.3 (0e150ed6c4, 2023-07-21)" inkscape:export-filename="LOGO3.png" inkscape:export-xdpi="300" inkscape:export-ydpi="300">
  <defs id="defs2">
    <rect x="61.711136" y="722.53455" width="813.81561" height="417.83582" id="rect578-7-0-3-8-1"></rect>
    <rect x="61.711136" y="722.53455" width="708.34271" height="161.47218" id="rect578-70-3-5"></rect>
    <rect x="61.711136" y="722.53455" width="813.81561" height="417.83582" id="rect578-7-6-2-9-5"></rect>
  </defs>
  <g inkscape:label="Warstwa 1" inkscape:groupmode="layer" id="layer1">
    <path style="font-size:48.6667px;font-family:Century;-inkscape-font-specification:Century;white-space:pre;fill:#a7ac93;stroke-width:0.0575099" d="M 0.62509233,1.0550431 H 1.5612193 V 1.1575383 H 1.3370954 q -0.053298,0 -0.079263,0.028699 -0.024599,0.027332 -0.024599,0.087463 V 2.868533 q 0,0.057397 0.031432,0.081996 0.032799,0.023232 0.1298278,0.023232 h 0.2842546 q 0.226857,0 0.370351,-0.1503268 Q 2.1939591,2.671741 2.2595563,2.2986568 h 0.095663 L 2.3087542,3.0762572 H 0.62509233 V 2.9737615 h 0.16535962 q 0.0847297,0 0.11889495,-0.031432 0.0341652,-0.032799 0.0341652,-0.1038623 V 1.2600341 q 0,-0.050564 -0.0286987,-0.07653 Q 0.8861146,1.1575381 0.8300836,1.1575381 H 0.62509233 Z m 3.46708587,0 h 1.6016654 l 0.038265,0.6819374 H 5.6405458 Q 5.5858815,1.4144612 5.4669868,1.2859998 5.3494585,1.1575383 5.1595,1.1575383 H 4.763183 q -0.047831,0 -0.07243,0.025966 -0.024599,0.025966 -0.024599,0.079264 v 0.7202028 h 0.173559 q 0.1393941,0 0.2254909,-0.099762 0.087463,-0.099762 0.094296,-0.3061203 h 0.094295 V 2.5132145 H 5.1595 Q 5.1526667,2.2808908 5.063837,2.1811285 4.9763743,2.0799992 4.8246806,2.0799992 H 4.6661541 v 0.8035661 q 0,0.043732 0.028699,0.066964 0.030066,0.023232 0.098396,0.023232 h 0.3129536 q 0.5097449,0 0.5876414,-0.650506 h 0.098396 L 5.7580741,3.0762572 H 4.0921782 V 2.9737615 h 0.1380277 q 0.08063,0 0.1134284,-0.027332 0.032799,-0.028698 0.032799,-0.081996 v -1.601666 q 0,-0.053298 -0.028699,-0.079264 -0.028698,-0.025966 -0.090196,-0.025966 H 4.0921782 Z m 4.687468,0.1530602 0.1229952,-0.1762925 h 0.099762 l 0.0082,0.7366017 H 8.9204067 Q 8.8356775,1.4294937 8.6689512,1.2737001 8.5035914,1.1179071 8.2876672,1.1179071 q -0.1803923,0 -0.2951877,0.1079621 -0.1147948,0.1079621 -0.1147948,0.2637551 0,0.097029 0.043732,0.1708261 0.043731,0.07243 0.1298274,0.1188953 0.087463,0.045098 0.3279861,0.097029 0.3375524,0.073797 0.4728466,0.1489603 0.1366612,0.075164 0.2036251,0.1899585 0.066963,0.113429 0.066963,0.2664891 0,0.2733213 -0.1844921,0.4537136 -0.1831252,0.1790259 -0.474213,0.1790259 -0.3129531,0 -0.5439104,-0.2022581 L 7.7656227,3.1008559 H 7.6672268 V 2.3177892 h 0.098396 q 0.057398,0.3238862 0.2569224,0.5111119 0.1995247,0.187225 0.4496143,0.187225 0.2022581,0 0.3293526,-0.1188947 0.1284615,-0.1202617 0.1284615,-0.2910878 0,-0.097029 -0.047831,-0.1694591 Q 8.8343104,2.3628872 8.7304482,2.3136893 8.626586,2.2631249 8.3218327,2.1920611 7.9870132,2.1127982 7.8653851,2.0144023 7.694559,1.8750082 7.694559,1.6194522 q 0,-0.2664885 0.1694596,-0.4359482 0.1708261,-0.1708261 0.4359483,-0.1708261 0.1270944,0 0.2418893,0.045098 0.1147954,0.045098 0.23779,0.1503274 z M 8.2753676,0.90744923 8.2412027,0.87328378 8.4748929,0.53846489 q 0.095662,-0.1393941 0.1339272,-0.16945968 0.039632,-0.030065 0.079263,-0.030065 0.045098,0 0.079263,0.0341649 0.034165,0.0327984 0.034165,0.0751637 0,0.0683303 -0.097029,0.14076053 z M 10.918389,1.0550431 h 0.482413 l 1.219015,1.5879993 V 1.4937242 q 0,-0.173559 -0.07926,-0.2569224 -0.07243,-0.07653 -0.215924,-0.079264 V 1.0550431 h 0.706537 v 0.1024952 q -0.107962,0 -0.16126,0.030066 -0.0533,0.030065 -0.09293,0.1093285 -0.03963,0.079263 -0.03963,0.1735595 v 1.6057653 h -0.128461 l -1.26138,-1.6522298 v 1.219015 q 0,0.1653593 0.08336,0.2473557 0.08336,0.08063 0.258288,0.083363 V 3.0762572 H 10.918389 V 2.9737615 q 0.144861,-0.00547 0.22959,-0.094296 0.08473,-0.090196 0.08473,-0.220024 V 1.2887332 l -0.02323,-0.024599 q -0.06833,-0.073797 -0.09703,-0.087463 -0.03963,-0.019133 -0.102496,-0.019133 h -0.09156 z m 3.601013,0 h 0.885562 v 0.1024952 h -0.0984 q -0.122994,0 -0.159893,0.019133 -0.0369,0.019132 -0.0369,0.053298 0,0.035531 0.01913,0.06423 l 0.513844,0.7967329 0.368985,-0.6792046 q 0.0246,-0.045098 0.0246,-0.098396 0,-0.071064 -0.04646,-0.1134284 -0.04646,-0.042365 -0.132561,-0.042365 h -0.0943 V 1.0550431 h 0.770767 v 0.1024952 q -0.132561,0 -0.209091,0.046465 -0.07653,0.046465 -0.147594,0.174926 l -0.466013,0.8541299 v 0.6395734 q 0,0.050564 0.0287,0.07243 0.03963,0.028699 0.117529,0.028699 h 0.173559 V 3.0762572 H 15.102944 V 2.9737615 h 0.183125 q 0.0738,0 0.106596,-0.025966 0.0328,-0.027332 0.0328,-0.075163 V 2.2508253 L 14.79819,1.2737001 q -0.041,-0.062864 -0.09566,-0.087463 -0.05466,-0.025966 -0.183126,-0.028699 z m 4.42918,0 h 0.996257 q 0.337552,0 0.515212,0.1530602 0.177659,0.1530601 0.177659,0.4004163 0,0.2473562 -0.163993,0.3771835 -0.22549,0.1790259 -0.55621,0.1790259 h -0.360785 v 0.6901378 q 0,0.060131 0.0287,0.086096 0.03826,0.032799 0.102496,0.032799 h 0.22959 V 3.0762572 H 18.948582 V 2.9737615 h 0.202258 q 0.06013,0 0.08746,-0.023232 0.0287,-0.024599 0.0287,-0.065597 V 1.2737001 q 0,-0.061497 -0.03553,-0.088829 -0.03553,-0.027333 -0.133928,-0.027333 h -0.14896 z m 0.60814,1.0099236 h 0.274689 q 0.261022,0 0.375817,-0.1079621 0.116162,-0.1093286 0.116162,-0.3594182 0,-0.174926 -0.05193,-0.267855 -0.05193,-0.094296 -0.15306,-0.1393941 -0.09976,-0.045098 -0.329353,-0.045098 -0.151694,0 -0.192692,0.028699 -0.03963,0.028699 -0.03963,0.099762 z m 3.476652,-1.0522888 h 0.09156 l 0.725669,1.8490216 q 0.04373,0.112062 0.179025,0.112062 h 0.06286 V 3.0762572 H 23.286196 V 2.9737615 h 0.06423 q 0.125728,0 0.177659,-0.027332 0.03553,-0.019132 0.03553,-0.058764 0,-0.023232 -0.0096,-0.049198 L 23.385959,2.4093523 H 22.58786 l -0.0943,0.2459892 q -0.0369,0.098396 -0.0369,0.1557936 0,0.066964 0.0615,0.1147948 0.06286,0.047832 0.181759,0.047832 h 0.06833 v 0.1024953 h -0.7325 V 2.9737615 q 0.117529,0 0.185859,-0.050564 0.06833,-0.051931 0.125728,-0.1954254 z m -0.03963,0.3894837 -0.362151,0.9005951 h 0.714736 z m 2.555559,-0.3471185 h 1.044089 q 0.303387,0 0.470113,0.1380271 0.168093,0.1380276 0.168093,0.3621516 0,0.1339278 -0.06696,0.2391564 -0.0656,0.1038622 -0.191326,0.1667262 -0.124361,0.061498 -0.392217,0.08883 0.195426,0.053298 0.269222,0.1052286 0.0738,0.050564 0.117529,0.1325614 0.0451,0.080629 0.102496,0.330719 0.041,0.1790258 0.08746,0.2446227 0.03553,0.050565 0.07653,0.050565 0.04237,0 0.0779,-0.061498 0.0369,-0.062864 0.0451,-0.2200241 h 0.09293 q -0.02596,0.4646469 -0.343018,0.4646469 -0.09976,0 -0.173559,-0.050564 -0.07243,-0.050564 -0.109329,-0.1489603 -0.0287,-0.073797 -0.06423,-0.3867503 -0.0205,-0.1817587 -0.0656,-0.2582888 -0.04373,-0.07653 -0.138027,-0.1229952 -0.0943,-0.046464 -0.225491,-0.046464 H 26.165642 V 2.876732 q 0,0.050565 0.02597,0.071064 0.0328,0.025966 0.102496,0.025966 h 0.194058 v 0.1024957 h -0.93886 V 2.9737615 h 0.198158 q 0.0656,0 0.09566,-0.025966 0.03143,-0.025966 0.03143,-0.071064 V 1.2614011 q 0,-0.051931 -0.03143,-0.077897 -0.03143,-0.025966 -0.09566,-0.025966 h -0.198158 z m 0.616341,0.9292936 H 26.4048 q 0.240523,0 0.375818,-0.090196 0.13666,-0.091563 0.13666,-0.3238863 0,-0.1598929 -0.05193,-0.2528225 -0.05056,-0.09293 -0.133927,-0.1270945 -0.08336,-0.034165 -0.327986,-0.034165 -0.16126,0 -0.199526,0.023232 -0.03826,0.021866 -0.03826,0.07653 z m 3.002439,-0.9292936 h 0.923827 v 0.1024952 h -0.196791 q -0.06286,0 -0.09703,0.032799 -0.03416,0.032799 -0.03416,0.083363 V 2.2125607 L 30.52513,1.3994284 q 0.0656,-0.071064 0.0656,-0.1339278 0,-0.047831 -0.0451,-0.077897 -0.0451,-0.030066 -0.147594,-0.030066 h -0.05603 V 1.0550431 h 0.829531 v 0.1024952 h -0.06423 q -0.08336,0 -0.183126,0.049198 -0.09976,0.049198 -0.184492,0.1366613 l -0.468747,0.487879 0.671005,0.9894248 q 0.05603,0.083363 0.116162,0.1188947 0.06013,0.034166 0.142127,0.034166 h 0.0738 V 3.0762572 H 30.362497 V 2.9737615 h 0.103862 q 0.113429,0 0.150327,-0.019132 0.03826,-0.019133 0.03826,-0.047832 0,-0.025966 -0.0164,-0.051931 L 30.080975,2.0349011 29.763922,2.3751869 v 0.4974458 q 0,0.046464 0.02733,0.06833 0.04373,0.032799 0.103862,0.032799 h 0.196791 V 3.0762572 H 29.168081 V 2.9737615 h 0.177659 q 0.06833,0 0.101129,-0.027332 0.0328,-0.028698 0.0328,-0.073797 V 1.2586676 q 0,-0.047832 -0.0369,-0.073797 -0.0369,-0.027333 -0.124362,-0.027333 h -0.150326 z" id="text576-7-8-5-3-6" aria-label="L  E  Ś  N  Y   P  A  R  K "></path>
    <path style="font-size:113.333px;font-family:Century;-inkscape-font-specification:Century;white-space:pre;fill:#a7ac93;stroke-width:0.0575099" d="M 0.73965722,4.6349247 H 3.1933663 q 0.7224278,0 1.1043283,0.3182503 0.3850825,0.3182503 0.3850825,0.7988078 0,0.4009955 -0.26733,0.6810558 -0.2673305,0.2800598 -0.805173,0.4423675 0.6651429,0.1400302 0.996123,0.4423675 0.3341627,0.2991553 0.3341627,0.7574358 0,0.3500751 -0.19095,0.6205876 Q 4.5618419,8.9663101 4.1194744,9.1540775 3.6802889,9.3418448 3.1201689,9.3418448 H 0.73965722 V 9.1031577 H 1.1279224 q 0.1750376,0 0.2546002,-0.057286 0.082745,-0.057285 0.082745,-0.1304824 V 5.144125 q 0,-0.133665 -0.079562,-0.2004978 Q 1.3061426,4.8736122 1.153383,4.8736122 H 0.73965722 Z M 2.146323,6.7990261 h 0.8911007 q 0.4105427,0 0.6524125,-0.2418703 0.2450529,-0.2418698 0.2450529,-0.7924426 0,-0.3405279 -0.1177526,-0.5314779 -0.11457,-0.1909505 -0.3373453,-0.2768777 -0.2195927,-0.08911 -0.7638004,-0.08911 -0.3850825,0 -0.4773755,0.057285 -0.092292,0.054103 -0.092292,0.1941326 z m 0,0.2355052 v 1.8140263 q 0,0.1272997 0.073197,0.1909499 0.07638,0.06365 0.2705132,0.06365 H 3.059701 q 0.5664852,0 0.8369978,-0.2482355 0.2705125,-0.2514176 0.2705125,-0.7797128 0,-0.4837401 -0.2800603,-0.7606178 Q 3.6070916,7.0345313 3.1138037,7.0345313 Z M 9.1860174,4.6349247 H 12.91591 l 0.08911,1.5880684 H 12.791792 Q 12.664492,5.4719225 12.387614,5.1727678 12.113919,4.8736124 11.671551,4.8736124 h -0.922925 q -0.111388,0 -0.168673,0.060468 -0.05729,0.060468 -0.05729,0.1845848 v 1.6771787 h 0.404178 q 0.324615,0 0.525112,-0.2323225 0.203681,-0.2323226 0.219593,-0.7128806 h 0.219593 V 8.0306542 H 11.671551 Q 11.655639,7.4896291 11.448776,7.2573066 11.245096,7.0218014 10.891838,7.0218014 h -0.36917 v 1.8713108 q 0,0.1018401 0.06683,0.1559425 0.07002,0.054103 0.22914,0.054103 h 0.728793 q 1.187074,0 1.368477,-1.514871 h 0.22914 l -0.07956,1.7535581 H 9.1860174 V 9.1031577 h 0.3214324 q 0.1877679,0 0.2641479,-0.06365 0.07638,-0.066833 0.07638,-0.1909499 v -3.729893 q 0,-0.1241172 -0.066833,-0.1845848 Q 9.7143127,4.873612 9.5710997,4.873612 H 9.1860174 Z m 8.0103566,0 h 1.568973 l 1.403483,3.7171624 1.295279,-3.7171624 h 1.603981 v 0.2386877 h -0.391448 q -0.206863,0 -0.280061,0.060468 -0.07001,0.060468 -0.07001,0.210045 V 8.870835 q 0,0.1113879 0.08593,0.1718555 0.08593,0.060468 0.295973,0.060468 H 23.06809 V 9.3418448 H 20.916718 V 9.1031577 h 0.400995 q 0.171856,0 0.254601,-0.06365 0.08275,-0.066833 0.08275,-0.1686729 V 4.8736124 l -1.556243,4.4682324 h -0.21641 L 18.208409,4.8927074 v 3.4211897 q 0,0.3055199 0.07638,0.4582799 0.07638,0.1495779 0.216411,0.2323231 0.143212,0.079563 0.47101,0.098658 V 9.3418448 H 17.196374 V 9.1031577 q 0.436002,-0.028643 0.591945,-0.187768 0.155943,-0.1591251 0.155943,-0.5633026 V 5.105935 q 0,-0.1209352 -0.0732,-0.1750376 -0.0732,-0.057285 -0.273695,-0.057285 h -0.400995 z m 11.581124,-0.098658 h 0.213227 l 1.689909,4.3059253 q 0.10184,0.2609653 0.416908,0.2609653 h 0.146395 V 9.3418448 H 29.366261 V 9.1031577 h 0.149577 q 0.29279,0 0.413725,-0.06365 0.08274,-0.044555 0.08274,-0.1368476 0,-0.054102 -0.02228,-0.1145699 L 29.598583,7.7887839 H 27.740002 L 27.52041,8.3616343 q -0.08593,0.2291405 -0.08593,0.3628055 0,0.1559426 0.143212,0.2673299 0.146395,0.111388 0.423273,0.111388 H 28.16009 V 9.3418448 H 26.454271 V 9.1031577 q 0.273695,0 0.43282,-0.1177526 0.159126,-0.1209351 0.292791,-0.4550979 z m -0.09229,0.9070132 -0.843363,2.0972686 h 1.664449 z" id="text576-9-7-6" aria-label=" B  E  M  A"></path>
    <text xml:space="preserve" transform="matrix(0.03821898,0,0,0.03821898,-2.2753971,5.998384)" id="text576-7-6-4-3-6" style="font-size:48px;white-space:pre;shape-inside:url(#rect578-7-6-2-9-5);display:inline;fill:#8a916f">
      <tspan x="61.710938" y="766.53411" id="tspan4">
        <tspan style="font-family:Century;-inkscape-font-specification:Century" id="tspan3"> </tspan>
      </tspan>
    </text>
  </g>
</svg>
