<?xml version="1.0" encoding="utf-8"?>
<!-- Generator: Adobe Illustrator 25.0.1, SVG Export Plug-In . SVG Version: 6.00 Build 0)  -->
<svg version="1.0" id="Layer_1" xmlns="http://www.w3.org/2000/svg" xmlns:xlink="http://www.w3.org/1999/xlink" x="0px" y="0px"
	 viewBox="0 0 883 579" style="enable-background:new 0 0 883 579;" xml:space="preserve">
<style type="text/css">
	.st0{fill:none;}
	.st1{fill:#1DA2B4;}
</style>
<rect x="79" y="171" class="st0" width="725" height="237"/>
<path id="路径" class="st1" d="M779.1,249.9c0.7,0,1.5,0.2,2,0.8c0.5,0.6,0.8,1.3,0.7,2.1v17.5c0,0.8-0.2,1.5-0.7,2.1
	c-0.5,0.5-1.3,0.8-2,0.8h-14.6v69.6c0,0.8-0.2,1.5-0.7,2.1c-0.5,0.5-1.3,0.8-2,0.8h-21.9c-0.7,0-1.5-0.2-2-0.8
	c-0.5-0.6-0.8-1.3-0.7-2.1v-69.6h-14.6c-0.7,0-1.5-0.2-2-0.8c-0.5-0.6-0.8-1.3-0.7-2.1v-17.5c0-0.8,0.2-1.5,0.7-2.1
	c0.5-0.5,1.3-0.8,2-0.8h14.6v-24.5c0-0.8,0.2-1.5,0.7-2.1c0.5-0.5,1.3-0.8,2-0.8h21.9c0.7,0,1.5,0.2,2,0.8c0.5,0.6,0.8,1.3,0.7,2.1
	v24.5H779.1z"/>
<path id="形状" class="st1" d="M716.1,296.1c0,4.2-0.4,7.3-1.3,9.2s-2.6,2.7-5.3,2.7h-54.2c1.1,4.7,3.9,8.9,7.8,11.7
	c4,2.6,9,3.8,15.2,3.9c2.9,0,5.8-0.4,8.6-1.2c3.1-1.1,6.1-2.5,8.8-4.4c1-1,2.7-1,3.7,0c0.1,0.1,0.2,0.3,0.3,0.4l9.5,9.6
	c0.5,0.5,0.7,1.2,0.7,1.9c-0.1,0.9-0.4,1.7-1.1,2.3c-4.3,4.6-9.4,8.2-15.2,10.8c-5.7,2.5-11.9,3.7-18.1,3.6
	c-8.7,0.1-17.2-2.1-24.7-6.5c-7.1-4.3-12.9-10.4-16.8-17.7c-4-7.6-6.1-16-6-24.6c-0.1-8.6,1.9-17,5.8-24.6
	c3.8-7.2,9.5-13.3,16.4-17.5c6.9-4.4,15-6.6,23.2-6.5c7.9-0.1,15.6,2.1,22.3,6.4c6.5,4.2,11.7,10.2,15,17.1
	C714.4,280,716.2,288,716.1,296.1z M673.7,273.6c-4.5-0.1-8.8,1.4-12.2,4.2c-3.4,2.7-5.6,6.6-6.6,11.9h36.9
	c-0.8-5.2-2.9-9.2-6.2-11.9C682.3,275,678.1,273.5,673.7,273.6z"/>
<path id="形状-2" class="st1" d="M616.1,251.3c0.7,0,1.5,0.2,2,0.8c0.5,0.6,0.8,1.3,0.7,2.1v90.6c0,9.3-2.4,16.9-7.3,22.7
	c-4.7,5.8-11,10.2-18.1,12.5c-7.2,2.4-14.7,3.7-22.3,3.6c-7.5,0-15-1.1-22.1-3.5c-6.4-1.9-12.4-4.9-17.7-8.9
	c-0.7-0.5-1.1-1.3-1.1-2.1c0-0.6,0.1-1.2,0.4-1.7l7.1-13.5c0.7-1,1.5-1.5,2.2-1.5c0.5,0,1,0.1,1.5,0.4c4,2.5,8.3,4.4,12.8,5.6
	c4.8,1.2,9.8,1.8,14.8,1.8c5.9,0.1,11.8-1.4,17-4.2c5.1-2.7,7.7-7.3,7.7-13.7v-8.9c-7.1,8.5-15.8,12.7-26.3,12.7
	c-7.9,0.1-15.6-2.2-22.1-6.5c-6.6-4.4-12-10.5-15.5-17.7c-7.3-15.3-7.3-33.1,0-48.5c3.5-7.2,8.9-13.3,15.5-17.7
	c6.5-4.4,14.2-6.6,22.1-6.5c10,0,18.5,4.2,25.6,12.5l0.5-7.5c0.2-1.9,1.2-2.9,2.7-2.9L616.1,251.3z M570.9,319.8
	c5.5,0,10.8-2.5,14.2-6.8c3.8-4.3,5.9-9.8,5.9-15.5c0.1-5.7-2-11.2-5.8-15.4c-3.5-4.3-8.7-6.8-14.2-6.7c-5.5-0.1-10.8,2.3-14.4,6.5
	c-3.9,4.2-6,9.8-5.8,15.6c-0.2,5.9,1.8,11.6,5.7,16C560,317.6,565.3,319.9,570.9,319.8L570.9,319.8z"/>
<path id="路径-2" class="st1" d="M515.1,249.9c0.7,0,1.5,0.2,2,0.8c0.5,0.6,0.8,1.3,0.7,2.1v17.5c0,0.8-0.2,1.5-0.7,2.1
	c-0.5,0.5-1.3,0.8-2,0.8h-14.6v69.6c0,0.8-0.2,1.5-0.7,2.1c-0.5,0.5-1.3,0.8-2,0.8h-21.9c-0.7,0-1.5-0.2-2-0.8
	c-0.5-0.6-0.8-1.3-0.7-2.1v-69.6h-14.6c-0.7,0-1.5-0.2-2-0.8c-0.5-0.6-0.8-1.3-0.7-2.1v-17.5c0-0.8,0.2-1.5,0.7-2.1
	c0.5-0.5,1.3-0.8,2-0.8h14.6v-24.5c0-0.8,0.2-1.5,0.7-2.1c0.5-0.5,1.3-0.8,2-0.8h21.9c0.7,0,1.5,0.2,2,0.8c0.5,0.6,0.8,1.3,0.7,2.1
	v24.5H515.1z"/>
<path id="形状-3" class="st1" d="M432,242c-3.9,0.1-7.7-1.5-10.4-4.4c-2.8-3-4.3-6.9-4.2-11c-0.1-4.1,1.4-8,4.2-11
	c5.2-5.7,14-6.2,19.8-1c0.4,0.3,0.7,0.7,1,1c2.8,3,4.3,6.9,4.2,11c0.1,4.1-1.4,8-4.2,11C439.7,240.5,435.9,242.1,432,242z
	 M418.3,252.7c0-0.8,0.2-1.5,0.7-2.1c0.5-0.5,1.3-0.8,2-0.8H443c0.7,0,1.5,0.2,2,0.8c0.5,0.6,0.8,1.3,0.7,2.1v90
	c0,0.8-0.2,1.5-0.7,2.1c-0.5,0.5-1.3,0.8-2,0.8h-22c-0.7,0-1.5-0.2-2-0.8c-0.5-0.6-0.8-1.3-0.7-2.1L418.3,252.7z"/>
<path id="形状-4" class="st1" d="M383.2,273.8c6.9,2,13,6.1,17.5,11.7c5,6,7.7,13.6,7.5,21.4c0,13-4,22.7-11.9,29.2
	c-7.8,6.4-19.7,9.6-35.8,9.6h-44.9c-0.7,0-1.5-0.2-2-0.8c-0.5-0.6-0.8-1.3-0.7-2.1V213.9c0-0.8,0.2-1.5,0.7-2.1
	c0.5-0.5,1.3-0.8,2-0.8h44.7c8,0,14.9,1.5,20.6,4.6c5.5,2.8,10.1,7.1,13.1,12.5c3.1,5.4,4.7,11.5,4.6,17.7
	c0.1,6.1-1.4,12.2-4.6,17.5C391.2,268.4,387.6,271.8,383.2,273.8z M372.2,249.7c0-8.2-4.8-12.3-14.4-12.3h-16.6v25.8h16.6
	c4.5,0,8-1.1,10.6-3.3C370.9,257.6,372.2,254.2,372.2,249.7L372.2,249.7z M361.6,319.3c5.6,0,10-1.3,13.3-4
	c3.3-2.7,4.9-6.7,4.9-12.1c0-5.3-1.6-9.1-4.9-11.5c-3.3-2.6-7.7-3.9-13.3-3.9h-20.4v31.5L361.6,319.3z"/>
<path id="路径-3" class="st1" d="M156.3,199c2.3-2.6,5.6-4,9-4h22c1.8,0.1,3.3,1.6,3.2,3.4c0,0.8-0.3,1.5-0.9,2.1l-43.6,48.4h24
	l24.5,27h-48.5l48.5,53.9h-29.3c-3.4,0-6.7-1.4-9-4L107.1,271c-4.4-4.9-4.4-12.4,0-17.3L156.3,199z"/>
<path id="路径-4" class="st1" d="M224,379.6c-2.3,2.6-5.6,4-9,4h-22c-1.8-0.1-3.3-1.6-3.2-3.4c0-0.8,0.3-1.5,0.9-2.1l43.5-48.4
	h-24l-24.5-26.9h48.5l-48.5-53.9H215c3.4,0,6.7,1.5,9,4l49.2,54.7c4.4,4.9,4.4,12.4,0,17.3L224,379.6z"/>
</svg>
