<?xml version="1.0" encoding="UTF-8"?> <!-- Generator: Adobe Illustrator 16.0.0, SVG Export Plug-In . SVG Version: 6.00 Build 0) --> <svg xmlns="http://www.w3.org/2000/svg" xmlns:xlink="http://www.w3.org/1999/xlink" version="1.1" id="Layer_1" x="0px" y="0px" width="260.908px" height="75.273px" viewBox="0 0 260.908 75.273" xml:space="preserve"> <polygon fill="#CCCCCC" points="0,48.534 34.244,0 69.696,48.534 59.243,48.534 34.244,1.413 10.186,48.534 "></polygon> <g> <polygon fill="#339933" points="30.981,24.571 30.18,30.31 38.764,30.31 37.825,24.571 "></polygon> <polygon fill="#339933" points="20.432,31.194 16.283,39.366 27.69,39.366 29.216,31.194 "></polygon> <polygon fill="#339933" points="39.892,31.194 48.639,31.194 53.076,39.366 41.71,39.366 "></polygon> <polygon fill="#339933" points="28.934,40.361 27.525,48.534 42.049,48.534 40.466,40.361 "></polygon> </g> <polygon fill="#99CC33" points="23.35,24.571 20.805,30.31 29.265,30.31 30.249,24.571 "></polygon> <polygon fill="#99CC33" points="38.612,24.571 45.458,24.571 48.251,30.31 39.774,30.31 "></polygon> <polygon fill="#99CC33" points="29.986,31.194 28.934,39.366 40.175,39.366 38.944,31.194 "></polygon> <polygon fill="#99CC33" points="15.867,40.361 11.721,48.534 25.948,48.534 27.525,40.361 "></polygon> <polygon fill="#99CC33" points="42.049,40.361 53.408,40.361 57.597,48.534 43.868,48.534 "></polygon> <g> <path fill="#339933" d="M102.101,44.063c-1.154,1.653-2.765,2.889-4.831,3.708c-2.067,0.818-4.472,1.228-7.217,1.228 c-2.776,0-5.241-0.65-7.393-1.953c-2.152-1.302-3.817-3.154-4.995-5.557c-1.178-2.401-1.782-5.185-1.813-8.352v-2.971 c0-5.131,1.197-9.108,3.591-11.932C81.836,15.412,85.201,14,89.538,14c3.556,0,6.418,0.909,8.586,2.726s3.494,4.395,3.977,7.732 h-4.492c-0.842-4.523-3.525-6.785-8.048-6.785c-3.01,0-5.292,1.058-6.843,3.173c-1.552,2.115-2.336,5.179-2.351,9.19v2.786 c0,3.825,0.873,6.865,2.62,9.12c1.747,2.256,4.109,3.384,7.089,3.384c1.685,0,3.158-0.187,4.421-0.56 c1.264-0.374,2.308-1.004,3.135-1.891v-7.633h-7.884V31.57h12.353V44.063z"></path> <path fill="#339933" d="M121.145,27.102c-0.655-0.109-1.365-0.164-2.129-0.164c-2.839,0-4.765,1.209-5.779,3.626v17.967h-4.328 V23.218h4.211l0.07,2.924c1.419-2.261,3.431-3.393,6.036-3.393c0.842,0,1.481,0.109,1.918,0.328V27.102z"></path> <path fill="#339933" d="M139.814,48.531c-0.25-0.499-0.453-1.388-0.609-2.667c-2.012,2.091-4.414,3.135-7.205,3.135 c-2.496,0-4.542-0.705-6.141-2.117c-1.599-1.411-2.398-3.201-2.398-5.369c0-2.635,1.002-4.682,3.006-6.141 c2.004-1.458,4.823-2.188,8.457-2.188h4.211v-1.989c0-1.513-0.451-2.717-1.355-3.615c-0.906-0.896-2.238-1.345-4.002-1.345 c-1.543,0-2.838,0.39-3.883,1.17c-1.045,0.78-1.567,1.724-1.567,2.831h-4.352c0-1.264,0.448-2.484,1.345-3.662 c0.896-1.177,2.113-2.109,3.649-2.795s3.225-1.03,5.065-1.03c2.916,0,5.201,0.729,6.855,2.188c1.652,1.458,2.51,3.467,2.572,6.024 v11.65c0,2.324,0.297,4.173,0.891,5.545v0.374H139.814z M132.632,45.232c1.356,0,2.644-0.351,3.86-1.053 c1.217-0.701,2.098-1.614,2.643-2.737v-5.193h-3.391c-5.304,0-7.955,1.552-7.955,4.655c0,1.357,0.452,2.418,1.357,3.182 C130.05,44.851,131.212,45.232,132.632,45.232z"></path> <path fill="#339933" d="M164.987,41.817c0-1.17-0.441-2.078-1.322-2.726c-0.881-0.647-2.418-1.205-4.608-1.673 c-2.191-0.468-3.931-1.029-5.218-1.685c-1.286-0.655-2.238-1.435-2.854-2.339c-0.617-0.904-0.925-1.98-0.925-3.229 c0-2.074,0.878-3.829,2.632-5.264c1.755-1.435,3.997-2.152,6.727-2.152c2.869,0,5.197,0.741,6.983,2.223 c1.786,1.482,2.679,3.377,2.679,5.685h-4.352c0-1.185-0.503-2.207-1.509-3.065c-1.006-0.857-2.273-1.287-3.802-1.287 c-1.575,0-2.808,0.343-3.696,1.029c-0.89,0.687-1.334,1.583-1.334,2.69c0,1.045,0.413,1.833,1.24,2.363 c0.826,0.53,2.319,1.037,4.48,1.521c2.16,0.484,3.91,1.061,5.252,1.731c1.341,0.67,2.336,1.478,2.982,2.421 c0.647,0.943,0.972,2.094,0.972,3.45c0,2.262-0.905,4.075-2.714,5.439c-1.81,1.365-4.157,2.047-7.042,2.047 c-2.028,0-3.821-0.358-5.381-1.076c-1.561-0.717-2.78-1.719-3.662-3.006c-0.881-1.287-1.321-2.679-1.321-4.176h4.328 c0.078,1.45,0.658,2.601,1.743,3.45c1.084,0.851,2.515,1.275,4.293,1.275c1.638,0,2.951-0.331,3.941-0.994 S164.987,42.925,164.987,41.817z"></path> <path fill="#339933" d="M189.692,41.817c0-1.17-0.441-2.078-1.322-2.726c-0.881-0.647-2.418-1.205-4.608-1.673 c-2.191-0.468-3.931-1.029-5.218-1.685c-1.286-0.655-2.238-1.435-2.854-2.339c-0.617-0.904-0.925-1.98-0.925-3.229 c0-2.074,0.878-3.829,2.632-5.264c1.755-1.435,3.997-2.152,6.727-2.152c2.869,0,5.197,0.741,6.983,2.223 c1.786,1.482,2.679,3.377,2.679,5.685h-4.352c0-1.185-0.503-2.207-1.509-3.065c-1.006-0.857-2.273-1.287-3.802-1.287 c-1.575,0-2.808,0.343-3.696,1.029c-0.89,0.687-1.334,1.583-1.334,2.69c0,1.045,0.413,1.833,1.24,2.363 c0.826,0.53,2.319,1.037,4.48,1.521c2.16,0.484,3.91,1.061,5.252,1.731c1.341,0.67,2.336,1.478,2.982,2.421 c0.647,0.943,0.972,2.094,0.972,3.45c0,2.262-0.905,4.075-2.714,5.439c-1.81,1.365-4.157,2.047-7.042,2.047 c-2.028,0-3.821-0.358-5.381-1.076c-1.561-0.717-2.78-1.719-3.662-3.006c-0.881-1.287-1.321-2.679-1.321-4.176h4.328 c0.078,1.45,0.658,2.601,1.743,3.45c1.084,0.851,2.515,1.275,4.293,1.275c1.638,0,2.951-0.331,3.941-0.994 S189.692,42.925,189.692,41.817z"></path> <path fill="#CCCCCC" d="M205.531,17.088v6.13h4.726v3.345h-4.726v15.718c0,1.016,0.211,1.776,0.632,2.284 c0.421,0.507,1.139,0.761,2.152,0.761c0.499,0,1.185-0.094,2.059-0.28v3.488c-1.139,0.311-2.246,0.465-3.322,0.465 c-1.934,0-3.392-0.585-4.375-1.754c-0.982-1.17-1.474-2.831-1.474-4.983V26.563h-4.608v-3.345h4.608v-6.13H205.531z"></path> <path fill="#CCCCCC" d="M225.815,48.999c-3.432,0-6.224-1.126-8.376-3.38s-3.229-5.268-3.229-9.042v-0.795 c0-2.511,0.479-4.753,1.438-6.726c0.96-1.973,2.301-3.517,4.024-4.632c1.723-1.115,3.591-1.673,5.604-1.673 c3.29,0,5.849,1.084,7.673,3.252c1.825,2.168,2.737,5.272,2.737,9.312v1.801h-17.148c0.062,2.496,0.791,4.511,2.188,6.047 c1.396,1.536,3.17,2.305,5.322,2.305c1.528,0,2.823-0.312,3.884-0.936s1.988-1.451,2.784-2.48l2.644,2.059 C233.239,47.37,230.058,48.999,225.815,48.999z M225.277,26.306c-1.747,0-3.214,0.636-4.398,1.907 c-1.186,1.271-1.919,3.053-2.199,5.346h12.68v-0.327c-0.125-2.199-0.718-3.903-1.777-5.112 C228.521,26.911,227.086,26.306,225.277,26.306z"></path> <path fill="#CCCCCC" d="M250.848,45.467c1.544,0,2.894-0.468,4.048-1.403c1.153-0.937,1.793-2.106,1.918-3.51h4.095 c-0.079,1.45-0.577,2.831-1.498,4.141c-0.92,1.311-2.148,2.355-3.685,3.136c-1.536,0.779-3.162,1.169-4.878,1.169 c-3.447,0-6.188-1.149-8.224-3.45c-2.035-2.301-3.053-5.447-3.053-9.44v-0.725c0-2.464,0.452-4.656,1.357-6.574 c0.904-1.918,2.202-3.408,3.895-4.469c1.692-1.06,3.692-1.591,6.001-1.591c2.839,0,5.197,0.851,7.077,2.55 c1.88,1.7,2.882,3.907,3.007,6.621h-4.095c-0.125-1.637-0.745-2.983-1.859-4.036c-1.115-1.053-2.492-1.579-4.13-1.579 c-2.199,0-3.903,0.792-5.111,2.375c-1.209,1.583-1.813,3.872-1.813,6.867v0.819c0,2.916,0.601,5.162,1.802,6.737 C246.901,44.68,248.617,45.467,250.848,45.467z"></path> </g> <g> <path fill="#CCCCCC" d="M187.687,72.787c-0.581,0.833-1.393,1.455-2.434,1.868c-1.041,0.412-2.253,0.618-3.636,0.618 c-1.398,0-2.64-0.327-3.724-0.983s-1.923-1.589-2.516-2.799c-0.594-1.21-0.898-2.612-0.914-4.208v-1.496 c0-2.585,0.604-4.588,1.81-6.011c1.206-1.422,2.9-2.133,5.085-2.133c1.791,0,3.232,0.458,4.325,1.373 c1.092,0.915,1.76,2.214,2.003,3.895h-2.263c-0.424-2.278-1.775-3.417-4.054-3.417c-1.517,0-2.665,0.532-3.447,1.598 c-0.781,1.065-1.177,2.609-1.185,4.63v1.403c0,1.927,0.44,3.458,1.32,4.594c0.88,1.137,2.07,1.705,3.57,1.705 c0.849,0,1.592-0.094,2.228-0.282c0.637-0.188,1.163-0.506,1.579-0.952v-3.845h-3.972v-1.851h6.223V72.787z"></path> <path fill="#CCCCCC" d="M200.165,68.097h-4.031v6.941h-2.274V57.879h5.681c1.933,0,3.42,0.44,4.461,1.32s1.562,2.161,1.562,3.842 c0,1.068-0.289,2-0.866,2.793c-0.578,0.794-1.381,1.387-2.41,1.779l4.03,7.283v0.142h-2.428L200.165,68.097z M196.134,66.247h3.477 c1.124,0,2.018-0.292,2.682-0.874s0.996-1.361,0.996-2.338c0-1.062-0.316-1.877-0.949-2.443c-0.633-0.567-1.546-0.854-2.74-0.862 h-3.465V66.247z"></path> <path fill="#CCCCCC" d="M224.345,67.013c0,1.682-0.282,3.148-0.849,4.401c-0.565,1.254-1.366,2.21-2.403,2.87 c-1.037,0.659-2.247,0.989-3.63,0.989c-1.352,0-2.55-0.331-3.595-0.995s-1.856-1.61-2.434-2.841 c-0.577-1.229-0.874-2.653-0.89-4.271v-1.237c0-1.65,0.287-3.107,0.86-4.372c0.573-1.266,1.385-2.233,2.434-2.905 s2.249-1.008,3.601-1.008c1.374,0,2.586,0.332,3.635,0.996s1.856,1.626,2.422,2.887c0.566,1.262,0.849,2.729,0.849,4.402V67.013z M222.094,65.905c0-2.035-0.408-3.597-1.226-4.685c-0.817-1.089-1.96-1.633-3.429-1.633c-1.431,0-2.556,0.544-3.377,1.633 c-0.821,1.088-1.243,2.599-1.267,4.531v1.261c0,1.972,0.414,3.521,1.243,4.649c0.829,1.127,1.97,1.69,3.424,1.69 c1.461,0,2.593-0.532,3.394-1.597c0.802-1.064,1.214-2.591,1.237-4.578V65.905z"></path> <path fill="#CCCCCC" d="M242.231,57.879v11.667c-0.008,1.619-0.517,2.942-1.526,3.972s-2.379,1.606-4.107,1.732l-0.601,0.023 c-1.878,0-3.374-0.507-4.49-1.52c-1.115-1.014-1.681-2.408-1.697-4.184V57.879h2.239v11.62c0,1.241,0.342,2.206,1.025,2.894 s1.658,1.031,2.923,1.031c1.28,0,2.261-0.342,2.94-1.025s1.02-1.646,1.02-2.888V57.879H242.231z"></path> <path fill="#CCCCCC" d="M250.479,68.32v6.718h-2.263V57.879h6.329c1.878,0,3.349,0.479,4.413,1.438 c1.064,0.958,1.597,2.228,1.597,3.807c0,1.665-0.521,2.948-1.562,3.848s-2.531,1.349-4.472,1.349H250.479z M250.479,66.471h4.066 c1.21,0,2.137-0.285,2.781-0.856c0.644-0.57,0.966-1.395,0.966-2.473c0-1.023-0.322-1.842-0.966-2.456 c-0.645-0.613-1.528-0.933-2.651-0.956h-4.196V66.471z"></path> </g> </svg> 