<?xml version="1.0" encoding="utf-8"?>
<!-- Generator: Adobe Adobe Illustrator 24.2.0, SVG Export Plug-In . SVG Version: 6.00 Build 0)  -->
<svg version="1.1" id="Layer_7" xmlns="http://www.w3.org/2000/svg" xmlns:xlink="http://www.w3.org/1999/xlink" x="0px" y="0px"
	 width="1024px" height="1024px" viewBox="0 0 1024 1024" style="enable-background:new 0 0 1024 1024;" xml:space="preserve">
<style type="text/css">
	.st0{fill:url(#SVGID_1_);}
	.st1{fill:url(#SVGID_2_);}
	.st2{fill:url(#SVGID_3_);}
	.st3{fill:url(#SVGID_4_);}
	.st4{fill:url(#SVGID_5_);}
	.st5{fill:url(#SVGID_6_);}
	.st6{fill:url(#SVGID_7_);}
	.st7{fill:url(#SVGID_8_);}
	.st8{fill:#0F9CFB;}
	.st9{fill:url(#SVGID_9_);}
</style>
<g id="Warstwa_wektorowa_5_">
	<linearGradient id="SVGID_1_" gradientUnits="userSpaceOnUse" x1="282.3485" y1="296.4409" x2="222.2016" y2="48.034">
		<stop  offset="0" style="stop-color:#0F9CFB"/>
		<stop  offset="1" style="stop-color:#525252"/>
	</linearGradient>
	<path class="st0" d="M336.26,262.81c0,123.59,0,247.16,0,370.75c-0.94,40.3-61.29,40.57-62.28,0.01c0-162.09,0-324.19,0-486.27
		c0-16.8,14.17-30.82,31.14-30.82c16.97,0,31.14,14.02,31.14,30.82C336.26,185.79,336.26,224.3,336.26,262.81z"/>
	<linearGradient id="SVGID_2_" gradientUnits="userSpaceOnUse" x1="193.6161" y1="310.2038" x2="133.5047" y2="70.8414">
		<stop  offset="0" style="stop-color:#0F9CFB"/>
		<stop  offset="1" style="stop-color:#525252"/>
	</linearGradient>
	<path class="st1" d="M214.53,165.07c17.16-0.02,31.45,14.68,31.14,32.01c0,40.86,0,81.72,0,122.57c0,90.24,0,180.45,0,270.69
		c-0.95,41.13-61.28,41.37-62.28,0c0-131.09,0-262.17,0-393.25C183.08,179.74,197.37,165.05,214.53,165.07z"/>
	<linearGradient id="SVGID_3_" gradientUnits="userSpaceOnUse" x1="124.1828" y1="368.7901" x2="100.1026" y2="146.0786">
		<stop  offset="0" style="stop-color:#0F9CFB"/>
		<stop  offset="1" style="stop-color:#525252"/>
	</linearGradient>
	<path class="st2" d="M157.86,277.68c0,76.36,0,152.74,0,229.1c-0.97,39.54-61.29,39.66-62.28,0c0-76.36,0-152.73,0-229.1
		C96.54,238.15,156.87,238.01,157.86,277.68z"/>
	<linearGradient id="SVGID_4_" gradientUnits="userSpaceOnUse" x1="43.3107" y1="391.5256" x2="24.3567" y2="271.8444">
		<stop  offset="0" style="stop-color:#0F9CFB"/>
		<stop  offset="1" style="stop-color:#525252"/>
	</linearGradient>
	<path class="st3" d="M67.39,346.84v96.4c-3.53,0.68-7.18,1.02-10.84,1.02c-20,0.01-40.01-10.21-40.66-30.64
		c0.5-27.05-9.04-65.88,40.66-67.98C60.54,345.82,64.14,346.22,67.39,346.84z"/>
	<linearGradient id="SVGID_5_" gradientUnits="userSpaceOnUse" x1="697.7253" y1="273.5037" x2="655.4409" y2="37.4607">
		<stop  offset="0" style="stop-color:#0F9CFB"/>
		<stop  offset="1" style="stop-color:#525252"/>
	</linearGradient>
	<path class="st4" d="M750.02,148.53c0,162.08,0,324.19,0,486.27c-0.99,40.56-61.34,40.29-62.28,0c0-123.59,0-247.16,0-370.75
		c0-38.51,0-77.02,0-115.52c0-16.81,14.17-30.82,31.14-30.82C735.85,117.71,750.02,131.72,750.02,148.53z"/>
	<linearGradient id="SVGID_6_" gradientUnits="userSpaceOnUse" x1="796.0209" y1="291.9637" x2="765.6375" y2="60.3168">
		<stop  offset="0" style="stop-color:#0F9CFB"/>
		<stop  offset="1" style="stop-color:#525252"/>
	</linearGradient>
	<path class="st5" d="M809.47,166.3c17.16-0.02,31.45,14.68,31.14,32.01c0,131.09,0,262.18,0,393.26
		c-1,41.37-61.33,41.13-62.28-0.01c0-90.23,0-180.44,0-270.68c0-40.85,0-81.72,0-122.58C778.02,180.97,792.31,166.29,809.47,166.3z"
		/>
	<linearGradient id="SVGID_7_" gradientUnits="userSpaceOnUse" x1="893.8378" y1="354.6611" x2="867.1008" y2="53.5251">
		<stop  offset="0" style="stop-color:#0F9CFB"/>
		<stop  offset="1" style="stop-color:#525252"/>
	</linearGradient>
	<path class="st6" d="M928.42,278.92c0,76.36,0,152.73,0,229.1c-0.99,39.66-61.31,39.54-62.28-0.01c0-76.36,0-152.73,0-229.09
		C867.13,239.24,927.46,239.39,928.42,278.92z"/>
	<linearGradient id="SVGID_8_" gradientUnits="userSpaceOnUse" x1="980.4466" y1="396.6118" x2="954.7892" y2="175.2982">
		<stop  offset="0" style="stop-color:#0F9CFB"/>
		<stop  offset="1" style="stop-color:#525252"/>
	</linearGradient>
	<path class="st7" d="M967.44,346.89c49.7,2.1,40.16,40.92,40.66,67.98c-0.65,20.43-20.66,30.64-40.66,30.64
		c-3.65,0-7.31-0.34-10.84-1.02v-96.41C959.86,347.46,963.46,347.06,967.44,346.89z"/>
	<path class="st8" d="M721.67,323.83v40.76c-0.33,0-0.65,0-0.98,0c-37.59-0.02-75.19-0.06-112.78-0.06
		c-4.26,0.42-8.38,1.38-12.38,2.8c-0.01,0.01-0.02,0.01-0.03,0.01c-2.49,1.11-4.83,2.53-6.92,4.42
		c-11.37,10.31-14.13,26.72-13.3,41.39c0.04,0.54-0.03,1.62-0.28,3.04c0.13,156.77,0.25,313.54,0.4,470.3
		c0.04,1.73-0.13,3.38-0.51,4.94c-0.89,25.48-9.7,51.65-33.6,64.19c-3.94,2.36-9.15,4.03-14.92,4.95c-0.02,0.01-0.04,0.01-0.04,0.01
		c-2.98,0.65-6.04,1.01-9.11,1.2c-3.56,0.36-7.16,0.39-10.7,0.24c-0.39-0.01-1.57-0.08-3.12-0.21c-0.05,0-0.1,0-0.15-0.01
		c-8.2-0.52-15.84-2.46-21.15-5.64c-23.89-12.53-32.7-38.69-33.6-64.16c-0.38-1.56-0.57-3.22-0.52-4.95
		c0.15-156.77,0.27-313.55,0.41-470.31c-0.26-1.42-0.33-2.5-0.28-3.04c0.83-14.68-1.93-31.08-13.3-41.39
		c-2.08-1.88-4.41-3.32-6.9-4.41c-0.02-0.01-0.04-0.02-0.04-0.03c-4-1.41-8.13-2.38-12.39-2.8c-36.96,0-73.93,0.04-110.89,0.06
		v-40.76c19.01-0.01,38.02-0.03,57.03-0.04c18.04-0.01,36.07-0.03,54.1-0.03c0.68,0,1.35,0.04,2.02,0.11c0.02,0,0.03,0,0.04,0
		c0.82,0.02,1.64,0.05,2.46,0.11c0.02,0,0.03,0,0.04,0c0.84,0.05,1.68,0.11,2.51,0.18c1.06,0.09,2.12,0.22,3.17,0.39
		c8.75,1.67,17.26,4.41,25.06,8.84c24.93,14.18,36.96,42.93,37.92,70.82c0.12,0.9,0.19,1.85,0.21,2.82
		c-0.21,145.54-0.19,291.11-0.38,436.66c-0.9,8.3,0.52,20.89,0.43,32.48c0.01,0.02,0.01,0.04,0,0.06
		c0.38,10.83-0.55,21.82,2.98,32.19c2.39,6.57,7.11,11.33,13.21,12.29c1.57,0.35,3.15,0.53,4.75,0.53c0.43,0,0.88-0.02,1.32-0.04
		c0.77-0.05,1.53-0.15,2.29-0.27c0.82-0.11,1.64-0.27,2.45-0.44c1-0.21,1.99-0.48,2.96-0.79c0.94-0.29,1.87-0.65,2.75-1.06
		c0.56-0.25,1.09-0.54,1.62-0.85c0.43-0.25,0.85-0.51,1.25-0.8c0.15-0.1,0.3-0.2,0.45-0.3c0.27-0.19,0.52-0.41,0.79-0.61
		c2.22-2.12,3.98-4.94,5.18-8.2c3.51-10.32,2.61-21.27,2.97-32.05c-0.1-11.64,1.34-24.35,0.43-32.69
		c-0.18-145.55-0.17-291.11-0.37-436.66c0.02-0.98,0.09-1.92,0.21-2.82c0.96-27.88,13-56.63,37.92-70.81
		c7.8-4.44,16.31-7.17,25.05-8.85c1.05-0.16,2.11-0.29,3.18-0.38c0.83-0.07,1.67-0.12,2.51-0.18c-0.03,0-0.05,0-0.08,0
		c0.04,0,0.08,0,0.12-0.01c-0.01,0.01-0.03,0.01-0.03,0.01c0.82-0.05,1.65-0.09,2.48-0.11c0.01,0,0.03,0,0.04,0
		c0.66-0.07,1.34-0.11,2.03-0.11c18.03,0,36.06,0.02,54.1,0.03C681.75,323.81,701.7,323.82,721.67,323.83z"/>
	<path class="st8" d="M718.91,400.06v40.76c-19.72,0-39.44,0.02-59.15,0.03c-15.62,0.02-31.25,0.02-46.86,0.03
		c-10.78,0.01-19.77-9.28-19.77-20.38c0-11.11,8.99-20.37,19.77-20.38c16.94-0.01,33.9-0.02,50.84-0.03
		C682.13,400.08,700.52,400.06,718.91,400.06z"/>
	<path class="st8" d="M411.43,400.53c10.78,0,19.78,9.27,19.78,20.38c0,11.1-9,20.38-19.78,20.38c-23.13,0-46.27,0.02-69.4,0.04
		c-15.62,0.02-31.24,0.02-46.85,0.03c-10.78,0.01-19.78-9.28-19.78-20.38c0-11.11,9-20.37,19.78-20.38
		c16.94-0.01,33.89-0.02,50.84-0.03C367.83,400.56,389.64,400.53,411.43,400.53z"/>
	<linearGradient id="SVGID_9_" gradientUnits="userSpaceOnUse" x1="538.8437" y1="259.8739" x2="468.6293" y2="-20.9835">
		<stop  offset="0" style="stop-color:#0F9CFB"/>
		<stop  offset="1" style="stop-color:#525252"/>
	</linearGradient>
	<path class="st9" d="M421.12,151.34c3.91-119.28,177.28-119.26,181.18-0.01C598.39,270.6,425.01,270.58,421.12,151.34z"/>
</g>
</svg>
