<?xml version="1.0" encoding="utf-8"?>
<!-- Generator: Adobe Illustrator 24.0.0, SVG Export Plug-In . SVG Version: 6.00 Build 0)  -->
<svg version="1.1" xmlns="http://www.w3.org/2000/svg" xmlns:xlink="http://www.w3.org/1999/xlink" x="0px" y="0px"
	 viewBox="0 0 400 200" style="enable-background:new 0 0 400 200;" xml:space="preserve">
<style type="text/css">
	.st0{fill:#E73137;}
</style>
<g id="guides">
</g>
<g id="Hitachi_Corporate_White_x2F_Red">
	<g>
		<path d="M47.2,100.2V51.5h12.3v19.2h26.3V51.5h13v48.7H86V78.8H59.5v21.4H47.2z"/>
		<path d="M121.9,100.2h-12.3V51.5h12.3V100.2z"/>
		<path d="M126.6,51.5h52.8v8.1h-19.7v40.6h-12.8V59.6h-20.2V51.5z"/>
		<path d="M168.4,100.2L191,51.5h15.9l22.8,48.7h-14l-4.5-10.3H187l-4.1,10.3H168.4z M208.3,81.8l-9.1-21.9l-9.3,21.9H208.3z"/>
		<path d="M289.5,100.2l0-48.7h12.8v19.2h26.3V51.5h12.5l0,48.7h-12.3l0-21.4h-26.5l0,21.4H289.5z"/>
		<path d="M364.1,100.2h-12.3l0-48.7h12.3V100.2z"/>
		<path d="M269.1,67.9c0.1-5.1-3-9.9-13.2-10c-13.2-0.1-14.5,11.7-14.5,18c-0.1,13.6,5.7,17.6,15.2,17.8c9.3,0.2,12.6-5.8,12.5-10.9
			h13.7c-0.6,12.2-8.9,18.3-26.2,18.5c-20.6,0.2-29.5-11.1-29.5-25.4c0-14.2,8.7-25.9,28.9-25.9c14.4,0,25.6,5.7,26.2,17.9H269.1z"
			/>
		<path d="M36.2,144.3h-6.7c0,0,0-22.3,0-23.8c0-1.5,0.5-3.7-3.7-3.7h-1.3v-1.7c0,0,9.3-0.4,11.8-1.2L36.2,144.3z"/>
		<path d="M290.5,144.5h-6.2c0,0,0-22.3,0-23.8c0-1.5,0.5-4.4-3.7-4.4h-1.3v-1.7c0,0,11.1,0,13.7,0l15.1,22.5v-22.5h6.2v30h-7.6
			l-16-23.5L290.5,144.5z"/>
		<path d="M223.8,144.5H218c0,0,0-23,0-24.6c0-1.1,0.5-3.7-2.5-3.7h-1.3v-2c0,0,7.1-0.4,9.6-1.2v14.4c0,0,2.6-4.5,8-4.5
			c5.4,0,6.6,4.1,6.6,6.8c0,2.7,0,14.8,0,14.8h-5.5v-14.9c0,0-0.3-2.7-3.3-2.7c-3,0-5.7,3.1-5.7,5.5
			C223.9,134.9,223.8,144.5,223.8,144.5z"/>
		<path d="M42.9,126l-0.2-1.6c0,0,8.5-1.1,9.5-1.4v4.4c0,0,3-4.4,8.2-4.4c5.2,0,6.4,4.2,6.4,5.6c0,1.3,0,15.9,0,15.9H61
			c0,0,0-14.8,0-15.6s-0.7-2.4-3-2.4c-2.3,0-5.6,3.9-5.6,5.6c0,1.8,0,12.3,0,12.3h-6c0,0,0-14.8,0-16.2C46.4,127,46.6,126,42.9,126z
			"/>
		<path d="M88.2,128.3v-4.7c0,0-4.1-0.7-6.5-0.7c-2.4,0-7.9,1.1-7.9,6.2c0,6.7,11,6.8,11,10.7c0,3.3-6.2,3.4-10.3,0.5
			c-0.3-0.2-0.7,0-0.7,0v4.2c0,0,3.4,0.7,6.7,0.7c3.3,0,9.4-1.1,9.4-6.5c0-6.5-11.3-8-11.3-11C78.5,124.6,85.1,125.3,88.2,128.3z"/>
		<path d="M96.7,128.7c0-1.3-0.3-2.6-4-2.6v-1.8c0,0,8.7-0.8,9.5-1.3v2.8h0.9c0,0,1.2-2.7,5.6-2.7c4.4,0,9,2.6,9,10.7
			c0,8.1-3.6,11.3-9,11.3c-5.4,0-5.7-2.2-5.7-2.2h-0.9v10.7h-5.4L96.7,128.7z M102.4,134.7c0,5.8,2.4,7.4,4.5,7.4
			c2.2,0,4.7-1.4,4.7-8.5c0-7.1-3.5-7.4-4.7-7.4C104.5,126.1,102.4,128.9,102.4,134.7z"/>
		<path d="M125.7,128.4c0-1.3-0.1-2.3-3.9-2.3l0-1.6c0,0,8.5-1.1,9.5-1.4v4.4v17h-5.6L125.7,128.4z"/>
		<path d="M132.1,117.1c0,1.7-1.6,3.1-3.5,3.1c-1.9,0-3.5-1.4-3.5-3.1c0-1.7,1.6-3.1,3.5-3.1C130.6,114,132.1,115.4,132.1,117.1z"/>
		<path d="M141.1,144.4l0-15.8c0-1.3-0.3-2.6-4-2.6v-1.8c0,0,8.7-0.8,9.5-1.3v3.8h0.5c0,0,1.8-3.8,5.8-3.8c1.7,0,2.9,0.2,2.9,0.2
			v5.3c0,0-1.6-0.9-3-0.9c-1.4,0-5.9,1.5-5.9,5c0,3.6,0,11.9,0,11.9L141.1,144.4z"/>
		<path d="M340.9,123.3v1.8c0,0,2.7-0.1,3.8,1c1.1,1.1,5.5,7,5.5,7l-5.9,6.9h6.5l2.5-2.5l5.6,7.2h6.8l-16.1-21.4L340.9,123.3z"/>
		<path d="M173.2,129.6h-8.5c0,0,0.3-4.4,4.4-4.4C173.1,125.3,173.2,129.6,173.2,129.6z M168.9,122.8c-3.6,0-10.7,0.6-10.7,10.5
			c0,10,7.7,12,12.8,12s7.3-1.4,7.3-1.4v-3.1c0,0-2.2,1.2-5.1,1.2c-8.2,0-8.7-9.9-8.7-9.9h14.3C178.9,123.6,172.6,122.8,168.9,122.8
			z"/>
		<path d="M258.9,129.6h-8.5c0,0,0.3-4.4,4.4-4.4C258.8,125.3,258.9,129.6,258.9,129.6z M254.6,122.8c-3.6,0-10.7,0.6-10.7,10.5
			c0,10,7.7,12,12.8,12c5.1,0,7.3-1.4,7.3-1.4v-3.1c0,0-2.2,1.2-5.1,1.2c-8.2,0-8.7-9.9-8.7-9.9h14.3
			C264.6,123.6,258.3,122.8,254.6,122.8z"/>
		<path d="M334.6,129.6H326c0,0,0.4-4.4,4.4-4.4C334.4,125.3,334.6,129.6,334.6,129.6z M330.3,122.8c-3.6,0-10.7,0.6-10.7,10.5
			c0,10,7.7,12,12.8,12c5.1,0,7.3-1.4,7.3-1.4v-3.1c0,0-2.2,1.2-5.1,1.2c-8.2,0-8.7-9.9-8.7-9.9h14.3
			C340.2,123.6,333.9,122.8,330.3,122.8z"/>
		<path d="M195.4,125.9v-2.5h4v-6.5h5.7v6.5h6.5v2.5h-6.5c0,0,0,13.4,0,14.4c0,1.5,1.8,1.9,5.8,1.9c0,0.5,0,2.5,0,2.5
			s-1.3,0.6-4.3,0.6c-3,0-7.5-0.4-7.5-4.5c0-4.1,0-14.9,0-14.9H195.4z"/>
		<path d="M368.3,125.9v-2.5h4v-6.5h5.7v6.5h6.5v2.5h-6.5c0,0,0,13.4,0,14.4c0,1.5,1.8,1.9,5.8,1.9c0,0.5,0,2.5,0,2.5
			s-1.3,0.6-4.3,0.6s-7.5-0.4-7.5-4.5c0-4.1,0-14.9,0-14.9H368.3z"/>
		<polygon points="355.2,130.1 360.2,123.4 366.5,123.4 360.6,130.1 		"/>
		<polygon class="st0" points="373.3,108 380,108 372.3,116.9 365.7,116.9 		"/>
	</g>
</g>
</svg>
