<svg xmlns="http://www.w3.org/2000/svg" width="280.623" height="57.258"><defs><style>.b{fill:none}.c{fill:#58b7b3}</style></defs><path d="M14.904 12.313h-2v6.162H10.76v-6.162H8.766v-1.775h6.138zm6.628 0h-2v6.162h-2.144v-6.162h-1.994v-1.775h6.138zm-3.336 44.944z"/><path class="b" d="M41.582 4.677l.039-.1-.027.064z"/><path d="M39.16 0h-.1a.279.279 0 01.03 0h.038z"/><path class="b" d="M41.582 4.677l.039-.1-.027.064zm.001 0l-.01.021.006-.015z"/><path d="M15.463 53.102l.222-.542H6.492a1.8 1.8 0 01-1.794-1.795V6.492a1.8 1.8 0 011.794-1.794h20.685A2.941 2.941 0 0029.8 2.875L30.968.003H6.492A6.5 6.5 0 000 6.495v44.271a6.5 6.5 0 006.492 6.492h3.551c3.181 0 4.857-2.924 5.42-4.156zM50.766 0h-3.544c-3.069 0-4.738 2.725-5.364 4.026l-.006.015v.005l-.228.536-.039.1v.006l-.006.015h9.194a1.8 1.8 0 011.795 1.794v44.269a1.8 1.8 0 01-1.795 1.795H30.08a2.938 2.938 0 00-2.621 1.823l-1.169 2.872h24.476a6.5 6.5 0 006.492-6.492V6.492A6.5 6.5 0 0050.766 0z"/><path class="c" d="M41.594 4.649l.028-.064.227-.536v-.005l.006-.015c.626-1.3 2.3-4.026 5.364-4.026h-8.127a2.648 2.648 0 00-.342.021l-.08.012a3.222 3.222 0 00-.326.07l-.065.015a3.063 3.063 0 00-.355.136.681.681 0 00-.07.032 4.09 4.09 0 00-.312.17c-.011.01-.023.015-.035.024a2.644 2.644 0 00-.308.234.756.756 0 00-.062.056 2.41 2.41 0 00-.256.264.076.076 0 00-.021.02 3.358 3.358 0 00-.229.32l-.05.085a2.919 2.919 0 00-.176.35l-.005.012-.478 1.177-.694 1.694L15.69 52.56l-.006.014a.144.144 0 01-.015.039l-.155.381-.008.017-.042.091c-.563 1.232-2.239 4.155-5.42 4.155h8.152a2.935 2.935 0 002.708-1.825l1.168-2.872 19.5-47.862.01-.021z"/><path d="M41.583 4.677l-.01.021.006-.015z" fill="#53b0ae"/><path d="M32.116 44.058h2.1c0 .734.268 1.015.922 1.015.6 0 .863-.234.863-.688 0-.548-.363-.805-1.435-1.015-1.715-.327-2.358-.993-2.358-2.416 0-1.657 1.015-2.5 2.977-2.5 1.914 0 2.847.793 2.847 2.533h-2.088c0-.654-.245-.933-.793-.933-.526 0-.793.244-.793.676 0 .537.361.758 1.4.958 1.75.326 2.393 1.026 2.393 2.484 0 1.693-.993 2.5-3.058 2.5s-2.977-.782-2.977-2.614zm16.595-5.462l-1.833 7.936h-2.206l-1.1-4.692-1.1 4.692h-2.258l-1.832-7.936h2.206l.968 5.019 1.179-5.019h1.739l1.179 5.019.968-5.019z"/><path d="M252.895 5.383q-2.04-2.711-6.957-2.716a17.991 17.991 0 00-3.722.39 11.488 11.488 0 00-3.817 1.69 13.777 13.777 0 00-3.435 3.207 17.2 17.2 0 00-2.3 4.071 16.539 16.539 0 00-1.065 4.426q-.415 4.345 1.935 6.751t6.952 2.406a14.9 14.9 0 003.847-.492 12.8 12.8 0 003.92-1.952 13.8 13.8 0 003.506-3.559 15.648 15.648 0 002.031-4.053 17.214 17.214 0 00.759-3.488 9.24 9.24 0 00-1.654-6.681zm-4.851 6.651a15.568 15.568 0 01-.928 3.245 10.242 10.242 0 01-2.326 3.774 4.673 4.673 0 01-3.406 1.5 3.052 3.052 0 01-2.577-1.117 3.864 3.864 0 01-.693-2.816 15.108 15.108 0 011.032-3.88 9.8 9.8 0 012.326-3.646 4.613 4.613 0 013.263-1.372 3.219 3.219 0 012.569 1.093 4.15 4.15 0 01.743 3.219zM99.455 3.044l-1.626 5.45h-6.98l-5.12 16.73h-6.672l5.105-16.73h-6.677l1.642-5.45zm19.446 1.711q-1.3-1.707-4.467-1.711h-12.233l-6.7 22.18h6.67l2.707-9.017h.353a2.171 2.171 0 011.407.453 9.213 9.213 0 011.48 3.306c.611 1.9 1.134 3.655 1.564 5.257h7.029q-2.081-7.631-3.941-9.319a8.509 8.509 0 005.212-2.491 7.735 7.735 0 001.991-4.549 5.614 5.614 0 00-1.072-4.109zm-5.3 4.6a2.939 2.939 0 01-2.074 2.4 16.932 16.932 0 01-4.129.306h-1.261l1.359-4.522h3.375a3.618 3.618 0 012.318.484 1.56 1.56 0 01.417 1.332zm26.904 15.869l-1.276-22.18h-7.085l-14.282 22.18h7.155l2.025-3.633h7.012l-.059 3.633zm-10.838-8.336l4.474-8.08h.059l-.12 8.08zm40.531-13.844l-6.764 22.18h-6.217l-4.08-12.892h-.058l-3.914 12.892h-6.248l6.76-22.183h6.218l4.049 12.922h.058l3.946-12.922zm18.756 6.158l-6.251.349c.043-1.924-.9-2.888-2.848-2.888a3.043 3.043 0 00-1.878.523 1.746 1.746 0 00-.757 1.247 1.252 1.252 0 00.416 1.008 7.8 7.8 0 002.315 1.212 29.813 29.813 0 013.788 1.834 6.494 6.494 0 012.273 2.239 5.442 5.442 0 01.64 3.436 7.23 7.23 0 01-1.4 3.6 9.2 9.2 0 01-3.287 2.757 12.486 12.486 0 01-5.714 1.084q-5.117 0-7.065-2.03a6.283 6.283 0 01-1.639-5.207l.05-.51 6.291-.441a3.7 3.7 0 00.6 2.929 3.121 3.121 0 002.377.854 3.9 3.9 0 002.481-.711 2.364 2.364 0 00.982-1.621 1.647 1.647 0 00-.409-1.254 6.6 6.6 0 00-2.462-1.347q-4.565-1.755-5.682-3.236a4.954 4.954 0 01-.909-3.571 6.745 6.745 0 011.372-3.48 7.691 7.691 0 013.241-2.446 12.323 12.323 0 014.814-.868q8.728 0 8.657 6.534zm11.308-6.158l-6.745 22.18h-6.732l6.746-22.18zm23.098 0l-1.626 5.45h-6.98l-5.119 16.73h-6.674l5.107-16.73h-6.677l1.64-5.45zm9.513 0l-6.746 22.18h-6.728l6.747-22.183zm47.75 0l-6.76 22.18h-6.218l-4.083-12.892h-.06l-3.911 12.892h-6.246l6.76-22.183h6.22l4.046 12.922h.06l3.944-12.919zM80.852 35.354v-4.806h-1.793v-.645h4.321v.645h-1.8v4.806zm15.732 0v-5.452h3.942v.645h-3.218v1.668h3.015v.642h-3.015v1.853h3.345v.644zm21.369-1.913l.722.185a2.447 2.447 0 01-.815 1.354 2.248 2.248 0 01-1.442.467 2.578 2.578 0 01-1.433-.359 2.251 2.251 0 01-.842-1.037 3.7 3.7 0 01-.287-1.461 3.2 3.2 0 01.326-1.487 2.223 2.223 0 01.926-.964 2.705 2.705 0 011.323-.328 2.244 2.244 0 011.375.416 2.161 2.161 0 01.778 1.172l-.71.168a1.661 1.661 0 00-.553-.866 1.456 1.456 0 00-.907-.273 1.775 1.775 0 00-1.05.3 1.621 1.621 0 00-.593.808 3.519 3.519 0 00.033 2.264 1.523 1.523 0 00.63.775 1.785 1.785 0 00.926.256 1.559 1.559 0 001.024-.349 1.772 1.772 0 00.57-1.041zm13.933 1.913v-5.452h.721v2.239h2.836v-2.239h.72v5.452h-.72v-2.568h-2.836v2.568zm17.483 0v-5.452h.742l2.865 4.281v-4.281h.689v5.452h-.739l-2.865-4.285v4.285zm22.396-4.182a2.331 2.331 0 00-.923-1 2.625 2.625 0 00-1.362-.361 2.482 2.482 0 00-1.884.767 2.969 2.969 0 00-.726 2.124 3.093 3.093 0 00.312 1.364 2.37 2.37 0 00.918 1.012 2.577 2.577 0 001.376.372 2.731 2.731 0 001.325-.334 2.319 2.319 0 00.948-1 3.186 3.186 0 00.334-1.479 3.3 3.3 0 00-.318-1.465zm-.952 3.087a1.847 1.847 0 01-2.669 0 2.167 2.167 0 01-.531-1.552 2.336 2.336 0 01.553-1.756 1.843 1.843 0 011.317-.527 1.772 1.772 0 01.972.274 1.735 1.735 0 01.662.769 2.832 2.832 0 01.223 1.162 2.314 2.314 0 01-.526 1.628zm14.478 1.095v-5.452h.722v4.808h2.686v.644zm21.507-4.182a2.337 2.337 0 00-.923-1 2.622 2.622 0 00-1.364-.361 2.47 2.47 0 00-1.879.767 2.957 2.957 0 00-.729 2.124 3.08 3.08 0 00.313 1.364 2.364 2.364 0 00.918 1.012 2.575 2.575 0 001.376.372 2.721 2.721 0 001.324-.334 2.327 2.327 0 00.949-1 3.2 3.2 0 00.331-1.479 3.286 3.286 0 00-.316-1.465zm-.952 3.087a1.849 1.849 0 01-2.671 0 2.19 2.19 0 01-.53-1.552 2.336 2.336 0 01.553-1.75 1.844 1.844 0 011.319-.527 1.784 1.784 0 01.972.274 1.726 1.726 0 01.658.769 2.814 2.814 0 01.227 1.162 2.329 2.329 0 01-.524 1.622zm17.213-1.043v-.64l2.31-.005v2.024a4.147 4.147 0 01-1.1.639 3.218 3.218 0 01-1.158.212 3.1 3.1 0 01-1.46-.343 2.287 2.287 0 01-.991-1 3.131 3.131 0 01-.336-1.453 3.377 3.377 0 01.335-1.484 2.208 2.208 0 01.956-1.027 3.033 3.033 0 011.438-.333 2.8 2.8 0 011.07.192 1.789 1.789 0 01.75.53 2.434 2.434 0 01.413.9l-.652.178a1.971 1.971 0 00-.307-.655 1.244 1.244 0 00-.519-.381 1.891 1.891 0 00-.75-.143 2.239 2.239 0 00-.857.15 1.671 1.671 0 00-.581.4 1.989 1.989 0 00-.344.54 2.845 2.845 0 00-.208 1.1 2.624 2.624 0 00.254 1.22 1.591 1.591 0 00.727.729 2.288 2.288 0 001.023.239 2.417 2.417 0 00.911-.179 2.365 2.365 0 00.678-.387v-1.023zm15.517 2.138v-5.452h.721v5.452zm13.926 0v-5.452h3.942v.645h-3.221v1.668h3.017v.642h-3.017v1.853h3.347v.644zm17.275-1.752l.681-.058a1.469 1.469 0 00.225.668 1.178 1.178 0 00.547.424 2.02 2.02 0 00.838.163 2.047 2.047 0 00.728-.122.98.98 0 00.469-.337.787.787 0 00.157-.467.687.687 0 00-.152-.446 1.055 1.055 0 00-.488-.324 9.81 9.81 0 00-.973-.268 4.869 4.869 0 01-1.05-.337 1.485 1.485 0 01-.583-.506 1.281 1.281 0 01-.193-.683 1.381 1.381 0 01.237-.769 1.439 1.439 0 01.684-.544 2.572 2.572 0 011-.187 2.715 2.715 0 011.068.2 1.539 1.539 0 01.713.575 1.637 1.637 0 01.268.858l-.691.052a1.1 1.1 0 00-.38-.78 1.448 1.448 0 00-.949-.264 1.517 1.517 0 00-.953.24.717.717 0 00-.3.578.632.632 0 00.212.485 2.93 2.93 0 001.088.388 7.66 7.66 0 011.206.343 1.716 1.716 0 01.7.557 1.374 1.374 0 01.226.779 1.468 1.468 0 01-.25.819 1.613 1.613 0 01-.716.6 2.469 2.469 0 01-1.047.212 3.162 3.162 0 01-1.244-.213 1.755 1.755 0 01-.784-.653 1.813 1.813 0 01-.3-.977z" fill-rule="evenodd"/><path class="c" d="M200.273 47.536h2.674c0 .937.342 1.293 1.174 1.293.757 0 1.1-.3 1.1-.876 0-.7-.461-1.026-1.829-1.293-2.183-.416-3-1.262-3-3.075 0-2.11 1.293-3.18 3.789-3.18 2.437 0 3.626 1.011 3.626 3.225h-2.66c0-.833-.312-1.189-1.01-1.189-.669 0-1.011.312-1.011.861 0 .684.461.966 1.784 1.219 2.228.416 3.046 1.308 3.046 3.165 0 2.153-1.263 3.179-3.893 3.179s-3.79-.996-3.79-3.329zm8.85-.832v-2.14c0-2.912 1.279-4.16 4.176-4.16s4.175 1.249 4.175 4.16v2.14c0 2.912-1.278 4.16-4.175 4.16s-4.176-1.248-4.176-4.16zm5.617-.059v-2.021c0-1.486-.356-1.976-1.441-1.976s-1.441.49-1.441 1.976v2.021c0 1.486.356 1.976 1.441 1.976s1.441-.49 1.441-1.976zm7.099-3.849v1.8h3.506v2.214h-3.506v3.878h-2.735v-10.1h6.984v2.214zm12.64.044h-2.542v7.846h-2.734V42.84h-2.541v-2.258h7.816zm13.277-2.258l-2.333 10.1h-2.808l-1.4-5.973-1.4 5.973h-2.883l-2.333-10.1h2.808l1.234 6.389 1.5-6.389h2.214l1.5 6.389 1.235-6.389zm5.653 8.306h-2.7l-.491 1.8h-2.734l3.18-10.1h2.926l3.18 10.1h-2.868zm-2.168-2.109h1.635l-.818-3.284zm9.937.386h-.713v3.521h-2.735v-10.1h4.235c2.585 0 3.626.966 3.626 3.3 0 1.619-.506 2.585-1.694 3.016l2.065 3.789h-3.1zm-.713-2.141h1.2c.877 0 1.2-.327 1.2-1.144 0-.833-.326-1.159-1.2-1.159h-1.2zm13.903 3.45v2.214h-7.233v-10.1h7.088v2.214h-4.353v1.694h3.61v2.14h-3.61v1.838z"/></svg>