<?xml version="1.0" encoding="utf-8"?>
<!-- Generator: Adobe Illustrator 27.0.0, SVG Export Plug-In . SVG Version: 6.00 Build 0)  -->
<svg version="1.1" id="Layer_1" xmlns="http://www.w3.org/2000/svg" xmlns:xlink="http://www.w3.org/1999/xlink" x="0px" y="0px"
	 viewBox="0 0 248.15 182.41" style="enable-background:new 0 0 248.15 182.41;" xml:space="preserve">
<style type="text/css">
	.st0{fill:#97741F;}
	.st1{fill:#004C25;}
</style>
<path class="st0" d="M124.09,72.64c5.81,0,10.53,1.48,10.53,3.31c0,1.83-4.71,3.31-10.53,3.31c-5.82,0-10.53-1.48-10.53-3.31
	C113.56,74.13,118.28,72.64,124.09,72.64 M101.05,42.99c0.29,0,0.57-0.05,0.83-0.12l9.56,32.5c1.07,3.63,6.35,6.38,12.7,6.38
	c6.36,0,11.64-2.75,12.7-6.38l9.55-32.47c0.23,0.05,0.48,0.09,0.73,0.09c1.86,0,3.36-1.5,3.36-3.37c0-1.85-1.5-3.36-3.36-3.36
	c-1.86,0-3.36,1.51-3.36,3.36c0,1.34,0.78,2.49,1.91,3.03L134.6,66.39l1.78-31.98h0.07c1.86,0,3.36-1.5,3.36-3.35
	c0-1.86-1.5-3.36-3.36-3.36c-1.86,0-3.36,1.5-3.36,3.36c0,1.53,1.03,2.82,2.42,3.22l-7.37,31.26l-3.55-34.46
	c1.63-0.23,2.88-1.63,2.88-3.32c0-1.85-1.51-3.36-3.36-3.36c-1.86,0-3.36,1.51-3.36,3.36c0,1.7,1.27,3.1,2.9,3.32l-3.55,34.39
	l-7.35-31.2c1.41-0.4,2.46-1.69,2.46-3.23c0-1.86-1.51-3.36-3.36-3.36c-1.86,0-3.36,1.5-3.36,3.36c0,1.85,1.5,3.35,3.36,3.35h0.05
	l1.78,31.97l-11.1-23.77c1.08-0.56,1.83-1.68,1.83-2.99c0-1.85-1.5-3.36-3.36-3.36c-1.85,0-3.35,1.51-3.35,3.36
	C97.69,41.49,99.2,42.99,101.05,42.99"/>
<path class="st1" d="M94.22,122.54c-0.54,0.82-1.22,1.53-2.01,2.12c-1.28,1.02-2.75,1.62-4.31,1.69c-0.31,0.03-0.62,0.05-0.92,0.05
	c-0.32,0-0.62-0.02-0.92-0.05c-1.57-0.07-3.04-0.67-4.32-1.69c-0.79-0.59-1.48-1.3-2.01-2.12c-1.82-2.5-2.94-6.01-2.94-9.91
	c0-3.66,1-6.98,2.62-9.45c0.9-1.62,2.33-2.9,4.07-3.65c0.02-0.01,0.03-0.02,0.05-0.02c0.08-0.03,0.16-0.07,0.25-0.1
	c0.22-0.1,0.47-0.18,0.7-0.24c0.79-0.24,1.64-0.36,2.51-0.36c0.87,0,1.71,0.12,2.51,0.36c0.24,0.07,0.48,0.15,0.71,0.24
	c0.08,0.03,0.16,0.07,0.25,0.1c0.01,0.01,0.03,0.01,0.04,0.02c1.73,0.75,3.17,2.04,4.07,3.65c1.62,2.46,2.62,5.79,2.62,9.45
	C97.16,116.52,96.03,120.04,94.22,122.54 M86.96,95.38c-9.64,0-17.45,7.82-17.45,17.21c0,9.4,7.81,17.22,17.45,17.22
	c9.64,0,17.45-7.82,17.45-17.22C104.41,103.2,96.6,95.38,86.96,95.38"/>
<path class="st1" d="M138.98,116.18h-2.42v4.85c-0.07,2.91-2.45,5.25-5.37,5.25c-0.01,0-0.02-0.01-0.03-0.01v0.01h-10.2V99.02h4.68
	v-2.43h-16.86v2.43h4.68v27.27h-4.68v2.43h30.21v-0.01h0.01v-7.94h-0.01V116.18"/>
<path class="st1" d="M175.84,96.6h-31.77v2.43h4.59v27.27h-4.59v2.43h31.93v-11.56h-2.43V121h-0.01c-0.03,2.94-2.43,5.3-5.37,5.3
	h-0.03v0.01h-8.66v-0.01h-3.34v-13.53h2.43c0.02,0,0.04,0,0.06,0h1.36c2.17,0.02,3.93,1.79,3.93,3.97v0.08v1.78h2.22v-13.45h-2.21
	v1.55h-0.01c0,0.03,0.01,0.06,0.01,0.09c0,2.18-1.75,3.73-3.93,3.75h-3.85V99.03h7.01h0.12h4.93c2.94,0.01,5.32,2.38,5.35,5.31h0.01
	v3.3h2.43V96.6H175.84"/>
<path class="st1" d="M217.51,126.4c-2.33-0.06-2.88-0.78-4.68-2.84l-10.64-13.24l7.04-8.4v0.01c1.89-2.16,2.41-2.9,4.84-2.94h1.83
	v-2.35h-12.96v2.35h2.85v0c0.62,0,1.11,0.49,1.11,1.1c0,0.24-0.08,0.46-0.21,0.64l-6.23,7.44l-4.9-6.09l-1.03-1.29
	c-0.15-0.19-0.25-0.42-0.25-0.69c0-0.61,0.49-1.1,1.1-1.11h2.79v-2.35h-16.22v2.35h0.77c2.07,0.1,2.67,0.8,4.29,2.67l9.41,11.72
	l-8.48,10.12v-0.02c-1.89,2.16-2.41,2.9-4.85,2.94h-1.97v2.35H195v-2.35h-3.41v-0.01c-0.01,0-0.01,0.01-0.01,0.01
	c-0.61,0-1.11-0.49-1.11-1.11c0-0.25,0.1-0.49,0.24-0.68l7.53-8.99l6.26,7.79l0.95,1.19c0.15,0.19,0.24,0.43,0.24,0.69
	c0,0.61-0.49,1.11-1.1,1.11h-0.01v0.01h-3v2.34h0.02v0.01h17.46v-2.35H217.51"/>
<path class="st1" d="M49.02,110.71H41.2V98.95h7.82c3.37,0.14,6.05,2.47,6.05,5.87C55.07,108.23,52.38,110.56,49.02,110.71
	 M64,126.25l-2.12-6.17c-0.99-2.75-1.7-3.98-3.25-5.41c-1.03-0.91-2.45-1.35-3.51-1.65c3.95-0.64,6.96-4.06,6.96-8.18
	c0-4.57-3.7-8.29-8.28-8.29c-0.05,0-0.1,0.01-0.15,0.01v-0.01H29.16v2.42h4.52v27.3h-4.6v2.43h12.04h4.68v-2.43h-4.62v-13.12h3.58
	c0.12,0,0.22,0.01,0.34,0.01h0.73c1.14,0.05,2.14,0.21,3.03,0.47c0.83,0.21,1.71,0.49,2.29,0.87c0.79,0.51,1.64,1.23,2.38,2.5
	c0.2,0.33,0.37,0.67,0.53,1.02c1.37,2.57,2.19,6.13,3.1,10.66h5.52v0.01h4.98v-2.43H64z"/>
</svg>
