<svg width="115" height="41" viewBox="0 0 115 41" fill="none" xmlns="http://www.w3.org/2000/svg">
<path fill-rule="evenodd" clip-rule="evenodd" d="M15.8345 11.7011H10.9765C10.8305 10.1844 9.88502 9.42607 8.11711 9.42607C7.28695 9.42607 6.65665 9.56399 6.22619 9.83208C5.79574 10.1078 5.58052 10.4525 5.58052 10.8815C5.58052 11.3104 5.78036 11.6552 6.18776 11.9156C6.59515 12.176 7.21008 12.4135 8.04024 12.628C10.9689 13.3634 12.7983 13.9149 13.5362 14.2672C15.3887 15.1482 16.3187 16.6036 16.3187 18.6412C16.3187 20.4184 15.6884 21.8201 14.4279 22.8389C13.1673 23.8577 11.2302 24.3709 8.6091 24.3709C5.89567 24.3709 3.79721 23.8271 2.30599 22.7316C0.82247 21.644 0.0538066 20.1579 0 18.2888H5.28073C5.28073 19.0012 5.57283 19.5757 6.15701 20.0124C6.7412 20.4489 7.56367 20.6711 8.63984 20.6711C10.4001 20.6711 11.284 20.1273 11.284 19.0318C11.284 18.6029 11.1149 18.2812 10.769 18.0513C10.4231 17.8292 9.82353 17.6071 8.97033 17.3926C6.44911 16.7721 4.71961 16.2512 3.79721 15.7916C1.69875 14.7575 0.653366 13.1948 0.653366 11.1343C0.653366 9.57166 1.25293 8.31538 2.45204 7.36551C3.65116 6.41566 5.57283 5.94073 8.21703 5.94073C10.7382 5.94073 12.6061 6.42331 13.8206 7.38082C15.0505 8.34597 15.7192 9.78608 15.8345 11.7011ZM22.7833 15.1558C22.7833 18.4267 24.0592 20.0659 26.6035 20.0659C29.1478 20.0659 30.4238 18.4267 30.4238 15.1558C30.4238 11.9309 29.1478 10.3147 26.6035 10.3147C24.0592 10.3147 22.7833 11.9309 22.7833 15.1558ZM26.6035 24.3709C23.7748 24.3709 21.538 23.5283 19.9085 21.8431C18.2789 20.1579 17.4641 17.9288 17.4641 15.1558C17.4641 12.3599 18.2865 10.1232 19.9238 8.45322C21.5688 6.78334 23.7902 5.94839 26.5958 5.94839C29.3784 5.94839 31.5845 6.78334 33.1987 8.45322C34.8129 10.1232 35.6276 12.3599 35.6276 15.1558C35.6276 17.9288 34.8129 20.1579 33.1833 21.8431C31.5614 23.5283 29.363 24.3709 26.6035 24.3709ZM42.6763 23.9037H37.5032V0.00415039H42.6763V23.9037ZM53.3147 20.1732C54.3831 20.1732 55.2363 19.7443 55.8667 18.894C56.497 18.0436 56.8121 16.8334 56.8121 15.2631C56.8121 11.9922 55.6437 10.3529 53.3147 10.3529C50.9625 10.3529 49.7788 12.0382 49.7788 15.4009C49.7788 16.9176 50.1093 18.0896 50.7627 18.9246C51.4161 19.7519 52.2693 20.1732 53.3147 20.1732ZM49.848 23.9037H44.8901V0.00415039H49.9556V8.54514C51.001 6.81398 52.6536 5.94839 54.9135 5.94839C57.1273 5.94839 58.8721 6.791 60.1404 8.47622C61.4164 10.1614 62.0467 12.3293 62.0467 14.9873C62.0467 17.8828 61.3472 20.1655 59.9405 21.8507C58.5339 23.536 56.7045 24.3786 54.4446 24.3786C52.3769 24.3786 50.8472 23.536 49.8788 21.8507L49.848 23.9037ZM75.3446 13.3787C75.2754 12.2603 74.9526 11.4254 74.3838 10.8738C73.815 10.3147 73.0617 10.0389 72.1316 10.0389C71.2245 10.0389 70.4867 10.3223 69.9179 10.8892C69.3413 11.456 69.0108 12.2833 68.9186 13.3787H75.3446ZM80.5178 16.4734H68.8109C68.8801 17.5917 69.2337 18.5033 69.864 19.2157C70.4943 19.9281 71.3015 20.2804 72.27 20.2804C72.9387 20.2804 73.5229 20.1349 74.0379 19.8515C74.5529 19.568 74.868 19.2003 74.9833 18.7484H80.3025C79.7798 20.5255 78.8267 21.9121 77.4431 22.8926C76.0594 23.873 74.4222 24.3709 72.5159 24.3709C66.5895 24.3709 63.6301 21.192 63.6301 14.8341C63.6301 12.1071 64.3834 9.93933 65.8977 8.34597C67.412 6.74504 69.5105 5.94839 72.2007 5.94839C74.9142 5.94839 76.9742 6.77568 78.3962 8.42263C79.8106 10.0695 80.5178 12.5055 80.5178 15.7304V16.4734ZM94.3155 24.4782V22.0576C94.008 22.6474 93.4542 23.13 92.6549 23.4977C91.8556 23.8653 90.9103 24.0492 89.8183 24.0492C88.3885 24.0492 87.1512 23.7964 86.1056 23.2832C85.0608 22.77 84.2461 22.0729 83.6768 21.1843C83.1083 20.2958 82.6932 19.3383 82.4313 18.3195C82.1704 17.3006 82.0399 16.2053 82.0399 15.0486C82.0399 12.3445 82.747 10.1538 84.1612 8.46855C85.5755 6.78334 87.4277 5.94073 89.7106 5.94073C91.779 5.94073 93.3392 6.78334 94.3848 8.46855V6.408H99.488V24.0875C99.488 26.669 98.6814 28.6683 97.0828 30.0854C95.4761 31.4948 93.3164 32.1996 90.6029 32.1996C87.9815 32.1996 85.9058 31.5408 84.3537 30.2233C82.8082 28.9057 82.0317 27.1209 82.0317 24.8689H86.8128C86.8128 25.7727 87.1357 26.4775 87.7744 26.9831C88.4195 27.4962 89.3191 27.7491 90.487 27.7491C91.6786 27.7491 92.6093 27.4503 93.2927 26.8605C93.977 26.263 94.3155 25.474 94.3155 24.4782ZM88.3347 18.7867C88.9651 19.614 89.8183 20.0353 90.8867 20.0353C91.9551 20.0353 92.8238 19.6293 93.4771 18.825C94.1312 18.0207 94.4615 16.8717 94.4615 15.378C94.4615 12.0075 93.2699 10.33 90.8948 10.33C88.5655 10.33 87.3975 11.9692 87.3975 15.2401C87.3894 16.7645 87.705 17.9517 88.3347 18.7867ZM16.2188 30.1544V38.1592H17.0259V30.1544H16.2188ZM0.707075 38.1591V30.3152H1.51417V33.8464H5.86482V30.3152H6.66423V38.1591H5.86482V34.6201H1.51417V38.1591H0.707075ZM11.4531 38.32C10.8766 38.32 10.377 38.1898 9.95419 37.937C9.53146 37.6843 9.20856 37.3243 8.97033 36.8646C8.73967 36.405 8.61668 35.8611 8.61668 35.2406C8.61668 34.5972 8.73201 34.0457 8.96266 33.5708C9.19323 33.1035 9.51605 32.7435 9.93111 32.483C10.3462 32.2302 10.8381 32.1 11.4069 32.1C11.9912 32.1 12.4908 32.2302 12.8982 32.4983C13.3132 32.7664 13.6207 33.1494 13.836 33.6474C14.0435 34.1453 14.1435 34.7428 14.128 35.4321L9.47518 35.4394C9.5061 36.076 9.67346 36.5766 9.97727 36.9412C10.3155 37.3472 10.7921 37.554 11.4147 37.554C11.8374 37.554 12.2064 37.4544 12.5215 37.2629C12.8367 37.0714 13.0827 36.788 13.2672 36.4203L14.0128 36.7114C13.7821 37.2247 13.4362 37.6229 12.9828 37.8988C12.537 38.1822 12.0219 38.32 11.4531 38.32ZM9.49198 34.7734H13.2842C13.2293 34.196 13.0739 33.7491 12.8136 33.4328C12.4985 33.0423 12.0373 32.8508 11.43 32.8508C10.7997 32.8508 10.3078 33.0575 9.97727 33.4635C9.7144 33.7864 9.54875 34.2256 9.49198 34.7734ZM19.4241 38.1592V32.2762H20.1466V32.887C20.3073 32.6778 20.5083 32.5062 20.7462 32.3757C21.0536 32.1996 21.4072 32.1153 21.7993 32.1153C22.1759 32.1153 22.5065 32.1919 22.7985 32.3528C23.0906 32.5137 23.3213 32.7435 23.4903 33.0498C23.5019 33.0709 23.5131 33.0922 23.5239 33.1138C23.7005 32.8021 23.9455 32.5587 24.2513 32.3834C24.5664 32.2072 24.9123 32.1153 25.3121 32.1153C25.904 32.1153 26.3805 32.2992 26.7418 32.6592C27.0954 33.0269 27.2799 33.5171 27.2799 34.1376L27.2722 38.1515H26.4651L26.4728 34.2984C26.4728 33.8465 26.3421 33.4865 26.0961 33.2261C25.8425 32.9656 25.5196 32.8354 25.1352 32.8354C24.9123 32.8354 24.6971 32.889 24.4819 32.9886C24.2744 33.0882 24.0976 33.2567 23.9592 33.4788C23.8208 33.701 23.7517 33.9997 23.7517 34.3598L23.7436 34.3574L23.7363 38.1515H22.9523L22.96 34.3521C22.96 33.8849 22.837 33.5171 22.5833 33.2413C22.3373 32.9733 22.0068 32.8354 21.5994 32.8354C21.1921 32.8354 20.8615 32.9733 20.6078 33.249C20.3542 33.5248 20.2312 33.9001 20.2312 34.3598V38.1592H19.4241ZM30.4237 37.937C30.8465 38.1898 31.3461 38.32 31.9226 38.32C32.4914 38.32 33.0065 38.1822 33.4523 37.8988C33.9057 37.6229 34.2516 37.2247 34.4823 36.7114L33.7367 36.4203C33.5522 36.788 33.3062 37.0714 32.9911 37.2629C32.6759 37.4544 32.3069 37.554 31.8842 37.554C31.2616 37.554 30.785 37.3472 30.4468 36.9412C30.143 36.5766 29.9757 36.076 29.9447 35.4394L34.5976 35.4321C34.613 34.7428 34.513 34.1453 34.3055 33.6474C34.0902 33.1494 33.7828 32.7664 33.3677 32.4983C32.9603 32.2302 32.4607 32.1 31.8765 32.1C31.3077 32.1 30.8158 32.2302 30.4007 32.483C29.9856 32.7435 29.6627 33.1035 29.4322 33.5708C29.2015 34.0457 29.0863 34.5972 29.0863 35.2406C29.0863 35.8611 29.2093 36.405 29.4398 36.8646C29.6782 37.3243 30.001 37.6843 30.4237 37.937ZM33.7537 34.7734H29.9608C30.0159 34.2277 30.178 33.7924 30.4468 33.4635C30.7773 33.0575 31.2692 32.8508 31.8995 32.8508C32.5068 32.8508 32.9681 33.0423 33.2832 33.4328C33.5434 33.7491 33.6988 34.196 33.7537 34.7734ZM38.7792 38.32C38.0874 38.32 37.5186 38.1745 37.0728 37.8758C36.6269 37.577 36.3503 37.1633 36.2503 36.6348L37.0728 36.4969C37.1573 36.834 37.3572 37.0944 37.6724 37.2936C37.9875 37.4928 38.3718 37.5923 38.8254 37.5923C39.2712 37.5923 39.6248 37.5004 39.8861 37.3089C40.1475 37.1251 40.2705 36.8646 40.2705 36.5429C40.2705 36.3591 40.232 36.2135 40.1475 36.0986C40.0629 35.9837 39.9015 35.8765 39.6478 35.7769C39.3942 35.6773 39.0175 35.5624 38.5179 35.4321C37.9798 35.2866 37.5647 35.141 37.2573 34.9955C36.9575 34.85 36.7423 34.6815 36.6116 34.49C36.4809 34.2984 36.4194 34.0687 36.4194 33.7929C36.4194 33.4558 36.5117 33.1648 36.7038 32.912C36.896 32.6592 37.1573 32.4601 37.4879 32.3222C37.8261 32.1842 38.2104 32.1153 38.6562 32.1153C39.102 32.1153 39.5018 32.1842 39.8477 32.3298C40.2012 32.4753 40.4857 32.6745 40.7009 32.935C40.9161 33.1954 41.0468 33.4942 41.0853 33.8312L40.2627 33.9768C40.209 33.632 40.0398 33.3563 39.7477 33.1571C39.4557 32.9579 39.0944 32.8507 38.6486 32.8431C38.2258 32.8354 37.8876 32.912 37.6262 33.0805C37.3649 33.249 37.2342 33.4712 37.2342 33.7546C37.2342 33.9078 37.2803 34.0457 37.3802 34.1529C37.4725 34.2679 37.6493 34.3674 37.8953 34.4669C38.1413 34.5665 38.5025 34.6738 38.9637 34.7887C39.5094 34.9266 39.9322 35.0721 40.2397 35.2254C40.5471 35.3785 40.7701 35.5547 40.9008 35.7616C41.0314 35.9684 41.1006 36.2211 41.1006 36.5276C41.1006 37.0867 40.8931 37.5233 40.478 37.8374C40.0706 38.1592 39.5018 38.32 38.7792 38.32ZM47.688 38.0289C48.1338 38.2204 48.6334 38.32 49.1868 38.32C49.9555 38.32 50.6012 38.1592 51.1009 37.8528C51.6158 37.5311 52.0001 37.0944 52.2538 36.5352C52.5075 35.9761 52.6382 35.348 52.6382 34.6355V34.4364C52.6382 34.3368 52.6304 34.2525 52.6228 34.1683H49.9632V34.8577H51.7772C51.7542 35.4092 51.6466 35.8918 51.4544 36.2978C51.2623 36.7037 50.9855 37.0178 50.6166 37.2323C50.2476 37.4544 49.7787 37.5617 49.2176 37.5617C48.595 37.554 48.0876 37.4162 47.6726 37.1327C47.2575 36.8493 46.9423 36.4663 46.7424 35.9684C46.5426 35.4705 46.4427 34.896 46.4427 34.2449C46.4504 33.5861 46.5503 33.0116 46.7579 32.5137C46.9654 32.0158 47.2728 31.6251 47.6802 31.3494C48.0876 31.066 48.6027 30.9357 49.2176 30.9357C49.8018 30.9357 50.2861 31.0812 50.6781 31.3646C51.0701 31.6481 51.3545 32.0311 51.5236 32.5137L52.323 32.3222C52.1155 31.6634 51.7465 31.1426 51.2238 30.7519C50.7011 30.3612 50.017 30.162 49.1791 30.162C48.4258 30.162 47.7879 30.3305 47.2498 30.6676C46.7194 31.0046 46.3044 31.4796 46.0199 32.0924C45.7355 32.6975 45.5895 33.4176 45.5895 34.2372C45.5895 34.8577 45.674 35.4169 45.8355 35.9224C46.0046 36.4203 46.2351 36.8493 46.5503 37.2093C46.8654 37.5617 47.2421 37.8374 47.688 38.0289ZM54.5061 38.1591V32.2762H55.2286V33.2C55.2622 33.14 55.2981 33.0824 55.3362 33.0268C55.4439 32.8813 55.5591 32.7588 55.6821 32.6668C55.8358 32.5289 56.0127 32.4293 56.2202 32.3604C56.4277 32.2915 56.6276 32.2455 56.8351 32.2378C57.0427 32.2225 57.2348 32.2378 57.4039 32.2838V33.0345C57.1887 32.9809 56.9504 32.9656 56.6968 32.9962C56.4431 33.0268 56.2048 33.1264 55.9896 33.3026C55.7898 33.4558 55.6437 33.6397 55.5438 33.8541C55.4439 34.0686 55.3824 34.2908 55.3439 34.5282C55.3131 34.7657 55.2978 35.0031 55.2978 35.233V38.1668H54.5061V38.1591ZM60.0557 37.9217C60.4785 38.1898 60.9781 38.32 61.5623 38.32C62.1465 38.32 62.6461 38.1898 63.0766 37.9293C63.4917 37.6613 63.8145 37.3012 64.0374 36.834C64.2526 36.3667 64.3679 35.8305 64.3679 35.21C64.3679 34.6049 64.2603 34.0687 64.0374 33.6014C63.8221 33.1342 63.4993 32.7664 63.0843 32.506C62.6615 32.2379 62.1618 32.1077 61.57 32.1077C60.9935 32.1077 60.4938 32.2379 60.0788 32.4983C59.656 32.7587 59.3331 33.1188 59.1102 33.5861C58.8873 34.0534 58.772 34.5895 58.772 35.21C58.772 35.8151 58.8873 36.3437 59.1026 36.8187C59.3178 37.2936 59.6406 37.6536 60.0557 37.9217ZM63.0304 36.9029C62.7076 37.3395 62.2156 37.554 61.5623 37.554C60.9243 37.554 60.4477 37.3395 60.1249 36.9106C59.7944 36.4892 59.633 35.9147 59.633 35.21C59.633 34.7505 59.7021 34.3521 59.8404 33.9997C59.9789 33.655 60.1941 33.3793 60.4785 33.1801C60.7629 32.9809 61.1319 32.8813 61.57 32.8813C62.2233 32.8813 62.7076 33.0882 63.0304 33.5095C63.3533 33.9308 63.5147 34.4976 63.5147 35.21C63.5147 35.9071 63.3533 36.4663 63.0304 36.9029ZM68.588 38.3046C68.2344 38.3046 67.9269 38.251 67.6656 38.1438C67.4043 38.0365 67.1736 37.891 66.9969 37.6995C66.8124 37.5157 66.6663 37.3012 66.5511 37.0637C66.4357 36.8262 66.3588 36.5735 66.3051 36.3053C66.2513 36.0372 66.2282 35.7691 66.2282 35.5087V32.2762H67.0353V35.2789C67.0353 35.6006 67.066 35.8994 67.1275 36.1751C67.189 36.4509 67.2889 36.6883 67.4274 36.8952C67.5657 37.102 67.7425 37.2628 67.9577 37.3701C68.1729 37.485 68.4343 37.5386 68.7494 37.5386C69.0338 37.5386 69.2875 37.4927 69.5027 37.3931C69.718 37.2935 69.9025 37.1556 70.0485 36.9717C70.1945 36.7879 70.3099 36.5658 70.3867 36.3053C70.4355 36.14 70.4688 35.9593 70.4866 35.765V32.2762H71.2937V38.1591H70.5712V37.3649C70.3859 37.6268 70.1554 37.8334 69.8794 37.9906C69.495 38.1974 69.0646 38.3046 68.588 38.3046ZM73.5844 32.2762V40.7712H74.3915V37.4564C74.5275 37.6277 74.6839 37.7771 74.8603 37.9063C75.237 38.1822 75.6905 38.32 76.2363 38.32C76.7897 38.32 77.2586 38.1822 77.6429 37.8911C78.035 37.6229 78.3347 37.2476 78.5423 36.7803C78.7498 36.3131 78.8574 35.7846 78.8574 35.1947C78.8574 34.6125 78.7575 34.084 78.55 33.6167C78.3424 33.1494 78.0427 32.7817 77.6584 32.506C77.2663 32.2379 76.8051 32.1 76.267 32.1C75.7136 32.1 75.2447 32.2379 74.8681 32.506C74.6523 32.6596 74.4643 32.8459 74.307 33.0648V32.2762H73.5844ZM77.1895 37.2629C76.9127 37.4698 76.5745 37.577 76.1594 37.577C75.7366 37.577 75.3907 37.4774 75.1371 37.2706C74.8603 37.0637 74.6605 36.788 74.5222 36.428C74.3915 36.068 74.3223 35.662 74.3223 35.21C74.3223 34.7428 74.3838 34.3368 74.5222 33.9844C74.6529 33.632 74.8603 33.3563 75.1294 33.1571C75.3985 32.9579 75.7366 32.8583 76.1518 32.8583C76.5745 32.8583 76.9204 32.9656 77.1971 33.1724C77.4739 33.3793 77.6737 33.655 77.812 34.015C77.9428 34.3674 78.0119 34.7657 78.0119 35.21C78.0119 35.662 77.9428 36.0603 77.8043 36.4203C77.666 36.7727 77.4661 37.0561 77.1895 37.2629ZM101.756 28.3159H115V31.8549H101.756V28.3159Z" fill="#E84419"/>
</svg>
