<?xml version="1.0" encoding="utf-8"?>
<!-- Generator: Adobe Illustrator 27.8.0, SVG Export Plug-In . SVG Version: 6.00 Build 0)  -->
<svg version="1.0" id="katman_1" xmlns="http://www.w3.org/2000/svg" xmlns:xlink="http://www.w3.org/1999/xlink" x="0px" y="0px"
	 viewBox="0 0 841.89 595.28" style="enable-background:new 0 0 841.89 595.28;" xml:space="preserve">
<style type="text/css">
	.st0{fill:#53575B;}
	.st1{fill:#8C1816;}
	.st2{fill:#FFFFFF;}
</style>
<g>
	<path class="st0" d="M719.73,331.34h31.06v7.72h-21.91v13.17h18.52v7.72h-18.52v15.22h22.7v7.72h-31.85L719.73,331.34
		L719.73,331.34z"/>
	<path class="st0" d="M647.09,331.34h9.38l16.08,29l5.28,10.96h0.31c-0.39-5.28-1.18-11.82-1.18-17.58v-22.39h8.75v51.55h-9.38
		l-16.08-29l-5.28-10.96h-0.31c0.4,5.44,1.19,11.67,1.19,17.42v22.55h-8.75L647.09,331.34L647.09,331.34z"/>
	<path class="st0" d="M603.93,331.34h9.15v51.55h-9.15V331.34z"/>
	<path class="st0" d="M558.73,330.4c6.23,0,11.42,3.07,14.66,6.54l-5.12,5.68c-2.61-2.61-5.52-4.26-9.46-4.26
		c-8.51,0-14.51,7.1-14.51,18.68c0,11.74,5.52,18.84,14.19,18.84c4.57,0,7.88-1.89,10.8-5.12l5.13,5.6
		c-4.18,4.81-9.62,7.48-16.08,7.48c-13.16,0-23.41-9.46-23.41-26.56C534.92,340.41,545.48,330.4,558.73,330.4z"/>
	<path class="st0" d="M494.44,331.34h9.15v51.55h-9.15V331.34z"/>
	<path class="st0" d="M424.24,331.34h13.8c15.76,0,25.06,8.52,25.06,25.54c0,17.1-9.3,26.01-24.6,26.01h-14.27L424.24,331.34
		L424.24,331.34z M437.4,375.48c10.4,0,16.32-5.91,16.32-18.6c0-12.61-5.92-18.13-16.32-18.13h-4.02v36.73H437.4z"/>
	<path class="st0" d="M360.89,331.34h31.06v7.72h-21.91v13.17h18.52v7.72h-18.52v15.22h22.7v7.72h-31.85V331.34L360.89,331.34z"/>
	<path class="st0" d="M281.24,331.34h10.09l9.31,25.38l3.39,9.77h0.32l3.31-9.77l9.14-25.38h10.09v51.55h-8.59v-23.57
		c0-4.81,0.71-11.66,1.18-16.4h-0.31l-4.18,11.75l-8.91,23.41h-4.26l-8.91-23.41l-4.1-11.75h-0.32c0.48,4.74,1.18,11.59,1.18,16.4
		v23.57h-8.43L281.24,331.34L281.24,331.34z"/>
</g>
<g>
	<path class="st1" d="M405.08,304.93c-16.78,0-18.07-12.74-18.07-16.65c0-4.6,1.23-12.72,11.93-16.65
		c11.03-4.06,13.4-4.53,20.99-6.91v-1.96c0-3.68,0-4.58-0.73-6.85c-1.46-4.38-5.66-7.12-11.35-7.12c-8.38,0-11.81,6.39-11.83,6.46
		l-0.67,1.25l-3.11-1.85l0.31-0.96c1.51-4.81,7.59-13,20.88-13c8.63,0,14.25,2.45,17.74,7.74c2.59,4.2,2.8,10,2.8,16.06
		c0,5.33-0.13,11.26-0.24,16.05c-0.08,3.29-0.14,6.14-0.14,7.87c0,4.38,0.69,7.77,4.34,7.77c0.9,0,1.52-0.19,2.02-0.62l1-0.85
		l2.04,2.32l-0.68,0.87c-3.35,4.04-6.54,6.89-12.23,6.89c-4.92,0-8.33-2.34-9.49-6.26C417.84,301.38,412.87,304.93,405.08,304.93z
		 M419.92,272.37c-8.25,2.48-11.05,3.86-13.6,5.15c-3.55,1.8-5.4,5.44-5.4,9.72c0,3.35,1.19,8.97,9.24,8.97
		c2.66,0,6.45-0.49,9.76-2.86C419.92,293.34,419.92,272.37,419.92,272.37z"/>
	<path class="st1" d="M302.57,304.77c-8.03,0-14.15-0.88-20.42-2.93l-0.9-0.29v-4.5c0-5.99-0.13-8.34-0.26-10.25l-0.18-3.11
		l3.65,0.01l0.08,1.3c0.15,2.79,1.09,5.54,2.8,7.46c2.63,2.98,8.7,4.78,14.33,4.78c11.8,0,17.29-4.47,17.29-14.06
		c0-8.22-5.08-11.63-12.09-16.37l-1.12-0.77l-7.41-4.93c-10.29-6.82-15.53-12.28-15.53-23.2c0-5.34,2.02-22.76,27.96-22.76
		c10.65,0,18.86,1.4,19.2,1.45l1.12,0.2l-0.04,1.1c0,0.03-0.09,3.41-0.09,7.09c0,2.89-0.05,5.4,0.05,8l0.1,1.94h-3.14l-0.08-1.21
		c-0.23-3.3-1.19-5.67-3-7.48c-2.5-2.5-8.02-3.67-13.86-3.67c-13.75,0-15.35,7.07-15.35,12.37c0,7.3,3.74,9.77,11.91,15.17
		l9.38,6.21c7.99,5.33,15.52,10.36,15.52,23.61C332.48,302.34,311.56,304.77,302.57,304.77L302.57,304.77z"/>
	<path class="st1" d="M364.04,305.16c-9.58,0-14.88-3.42-17.23-11.06c-0.98-3.04-0.98-9.03-0.98-12.62c0-9.89,0.09-17.83,0.19-27.02
		l0.05-4.31h-8.17v-2.43l0.8-0.33c3.81-1.57,5.26-2.64,6.94-3.94c5.95-4.61,10.08-12.41,10.15-12.53l1.39-2.36h2.7v13.92h21.08v7.68
		h-21.08v32.5c0,9.7,1.81,15.25,11.01,15.25c4.27,0,7.55-1.66,7.58-1.68l1.27-0.65l1.08,2.52l-0.53,0.6
		C380.07,298.93,375.3,305.16,364.04,305.16L364.04,305.16z"/>
	<path class="st1" d="M448.25,304.38v-2.94l1.19-0.09c1.04-0.09,3.66-0.5,5.49-2.57c1.91-2.13,2.03-7.41,2.03-17.96v-17.69
		c0-7.61-0.12-10.87-1.22-12.53c-1.26-1.82-4.06-2.02-5.55-2.12c-0.19-0.01-0.36-0.03-0.51-0.04l-1.18-0.12v-3.54l1.4,0.11
		c0.24,0.03,0.55,0.03,0.95,0.03c1.91,0,6.42-0.26,11.19-1.18c3.64-0.58,5.76-1.84,6.53-2.19l0.71-0.33l1.22,0.73v4.92
		c3.13-2.32,9.4-5.95,17.94-5.95c11.15,0,18.45,5.22,20.53,14.68c0.59,2.35,0.81,8.04,0.81,11.08v18.06
		c0,10.22,0.4,13.09,2.31,14.88c0.96,0.89,3,1.62,4.79,1.73l1.22,0.09v2.89l-3.07-0.16c-4.44-0.22-8.27-0.43-12.29-0.43
		c-4.57,0-8.52,0-14.04,0.51l-1.44,0.14v-2.86l1.12-0.15c2.4-0.37,4.07-1.05,5.13-2.11c2-2.01,2.11-6.77,2.26-10.88
		c0.03-0.68,0.05-1.4,0.09-2.14c0.11-2.31,0.11-7.18,0.11-10.73c0-4.63,0-9.42-0.5-14.15c-0.92-8-5.1-11.73-13.14-11.73
		c-5.52,0-8.97,1.26-11.58,2.61v32.5c0,10.22,0.42,13.09,2.33,14.88c0.98,0.89,2.99,1.62,4.79,1.73l1.21,0.09v2.89l-3.29-0.17
		c-4.29-0.22-8-0.42-11.91-0.42c-4.47,0-8.67,0-14.21,0.51L448.25,304.38L448.25,304.38z"/>
	<path class="st1" d="M525.45,304.38v-3l1.21-0.09c1.05-0.08,3.67-0.49,5.49-2.55c1.93-2.14,2.02-7.37,2.02-17.91v-30.68h-8.06
		v-3.47l0.81-0.34c3.5-1.44,5.66-2.59,7.25-3.83c0.01-5.49,0.18-12.56,0.92-16.41c2.45-12.77,10.8-19.26,24.84-19.26
		c6.02,0,11.77,2.01,15.11,4.72l0.47,0.39l0.19,1.32l-6.15,8.54l-1.48,0.01l-0.33-0.77c-2.35-5.25-5.76-7.3-10.42-7.3
		c-1.94,0-4.6,0.58-6.24,2.23c-2.68,2.67-3.13,6.66-3.13,14.55v11.96h13.79v7.68h-13.79v34.33c0,8.17,0.27,12.15,1.33,13.75
		c1.73,2.61,7,2.81,8.55,2.81h1.31v3.29l-1.37-0.08c-6.82-0.35-11.89-0.51-15.55-0.51c-4.6,0-9.82,0-15.35,0.51L525.45,304.38
		L525.45,304.38z"/>
	<path class="st1" d="M596.63,305.42c-18.88,0-30.17-11.77-30.17-31.48c0-15.3,8.24-33.17,31.48-33.17
		c18.9,0,30.18,11.77,30.18,31.47C628.11,287.55,619.87,305.42,596.63,305.42z M597.41,247.93c-3.65,0-6.6,0.94-8.75,2.81
		c-4.98,4.17-7.5,11.76-7.5,22.55c0,4.17,0.77,24.99,16.01,24.99c3.63,0,6.6-0.96,8.78-2.81c4.95-4.17,7.47-11.76,7.47-22.55
		C613.42,268.73,612.65,247.93,597.41,247.93L597.41,247.93z"/>
	<path class="st1" d="M634.08,304.38v-3.13l1.21-0.1c1.05-0.06,3.7-0.47,5.51-2.55c1.92-2.13,2-7.22,2-17.77v-17.69
		c0-7.61-0.1-10.87-1.19-12.53c-1.27-1.82-4.06-2.02-5.56-2.12c-0.18-0.01-0.36-0.03-0.49-0.04l-1.21-0.12v-3.75l1.33,0.03
		c0.23,0.02,0.63,0.03,1.01,0.03c1.93,0,6.43-0.24,11.18-1.17c3-0.5,5.6-1.27,6.64-1.77l0.72-0.32l1.09,0.57v5.38
		c2.97-2.8,7.66-5.76,14.31-5.76c4.33,0,7.82,1.16,10.36,3.45l0.42,0.39v1.95l-5.21,9.55h-2.5l-0.39-0.6
		c-1.45-2.27-4.35-4.98-9.97-4.98c-2.57,0-4.79,0.64-6.75,1.96v31.19c0,8.17,0.27,12.03,1.33,13.62c1.75,2.59,6.98,2.8,8.54,2.8h1.3
		v3.43l-1.36-0.08c-6.8-0.35-11.89-0.51-15.55-0.51c-4.6,0-9.81,0-15.34,0.51L634.08,304.38L634.08,304.38z"/>
	<path class="st1" d="M731.39,305.24l-1.66-0.55v-5.21c-3.07,2.27-9.15,5.8-17.29,5.8c-17,0-27.98-11.78-27.98-30.04
		c0-6.05,1.19-11.81,3.39-16.66c5.17-11.23,15.96-17.67,29.52-17.67c4.98,0,9.44,0.62,12.09,1.19v-13.16
		c0-7.71-0.1-11.82-1.21-13.49c-1.26-1.8-3.97-2.01-5.43-2.12c-0.19-0.01-0.36-0.02-0.5-0.04l-1.17-0.12l0.27-2.78h1.31
		c0.29,0,7.45-0.59,13.26-1.73c2.44-0.4,4.85-0.94,6.11-1.41l0.62-0.23l1.07,0.64l-0.05,0.6c-0.41,5.1-0.48,16.01-0.48,24.18v50.46
		c0,7.54,0.1,12.21,1.19,13.71c1.28,1.84,3.98,2.15,5.44,2.27c0.19,0.01,0.37,0.01,0.51,0.04l1.17,0.05v3.32h-1.3
		c-1.39,0-6.79,0.38-12.02,1.28c-3,0.49-5.22,0.92-6.32,1.42L731.39,305.24L731.39,305.24z M717.1,248.32
		c-12.05,0-17.95,8.25-17.95,25.23c0,6.88,1.95,22.88,19.92,22.88h0.58c2.18,0,6.25-0.32,9.81-2.52v-41.45
		C728.45,251.46,724.7,248.32,717.1,248.32L717.1,248.32z"/>
</g>
<g>
	<path class="st1" d="M232.49,215.15H98.96c-3.34,7.79-10.81,38.25-5.11,73.27c0.16,0.96,0.35,1.93,0.52,2.9
		c6.1,33.43,24.49,70.49,69.91,95.87c0.5,0.28,0.95,0.57,1.45,0.85c0.5-0.27,0.95-0.57,1.45-0.85
		C261.83,334.31,239.08,230.55,232.49,215.15z"/>
	<path class="st2" d="M164.28,215.15v73.27H93.85c0.16,0.96,0.35,1.93,0.52,2.9h69.91v95.87c0.5,0.28,0.95,0.57,1.45,0.85
		c0.5-0.27,0.95-0.57,1.45-0.85V215.15H164.28z"/>
	<path class="st2" d="M129.24,228.74l0.03,2.06c1.38-1.11,3.37-2,4.96-2.32c-0.88,3.96-2.82,4.96-4.93,5.32l-0.08,3.33
		c1.72-1.39,4.32-3.26,6.31-3.66c-1.12,5.02-3.55,6.85-6.24,7.24l0.01,3.27c2.14-1.38,5.52-3.81,8-4.22
		c-1.42,5.1-4.57,7.11-7.99,7.43l0.01,3.01c2.14-1.39,5.51-3.55,7.98-3.95c-1.37,4.93-4.69,7.91-7.98,8.37l0,2.55
		c2.14-1.39,5.49-3.55,7.97-3.95c-1.3,5.16-4.58,7.94-8.01,8.23v2.09c2.58-1.52,6.8-4.18,9.78-4.62c-1.7,5.54-5.71,8.55-9.77,8.93
		v2.39c1.37-1.11,4.29-2.31,5.87-2.63c-0.84,3.78-3.89,5.08-5.91,5.57l-0.01,4.47c0.48-0.01,0.95-0.1,1.43-0.16
		c-0.13-1.55,0.77-3.15,2.79-4.43c0.09,1.19-0.59,2.92-0.97,4.1c1.09-0.24,2.15-0.54,3.23-1.01c-0.58-2.26,0.18-5.36,2.77-7.99
		c0.48,1.75,0.04,4.6-0.2,6.5c1.14-0.7,2.3-1.46,3.4-2.42c-1.25-2.15-1.02-5.48,1.41-8.83c0.71,1.64,0.75,4.81,0.78,6.72
		c0.98-1.04,2.04-2.23,2.99-3.49c-1.71-2.08-1.77-4.1,0.26-8.15c0.71,1.64,1.36,4.11,1.39,6.02c0.89-1.14,1.51-2.09,2.26-3.46
		c-0.44-1.05-0.23-1.84,0.31-2.52c0.75-0.95,1.89-1.76,2.89-1.14c1.41,0.64,0.7,2.19,0.21,3.32c-0.36,0.8-0.95,1.35-2.01,1.32
		c-0.71,1.29-1.74,2.7-2.63,3.82c2.06,0.65,3.5,1.13,4.88,2.53c-3.01,1.26-4.82,0.96-6.33-0.29c-0.97,1.3-2.4,2.7-3.42,3.77
		c1.98,0.62,3.29,1.17,4.91,2.82c-3.3,1.38-5.74,0.95-7.2-0.61c-1.15,0.98-2.24,2-3.42,2.69c1.95,1,3.36,2.05,4.54,3.67
		c-3.76,0.86-6.23-0.21-7.33-2.31c-1.11,0.45-2.15,0.83-3.28,1.04c1.07,0.92,1.8,1.63,2.34,2.83c-2.57-0.07-4.03-0.67-4.42-2.25
		c-0.52,0.05-1.04,0.4-1.56,0.39v5.03l-3.16-1.41v-3.69c-0.32-0.03-1.07-0.29-1.38-0.34c-0.46,1.49-1.59,2.07-4.06,2.13
		c0.55-1.22,0.84-2.09,2.09-2.73c-1.15-0.29-2.21-0.84-3.33-1.36c-0.98,2.34-3.19,3.32-7.17,2.41c1.17-1.63,2.63-3.08,4.62-3.76
		c-1.02-0.63-1.95-1.27-2.96-2.24c-1.44,1.63-3.91,2.18-7.27,0.78c1.38-1.41,2.76-2.52,4.85-2.93c-1.06-1.05-2.03-2.32-3.03-3.59
		c-1.51,1.32-3.77,1.75-6.87,0.46c1.38-1.41,2.96-2.9,4.95-2.88c-0.61-0.86-1.14-1.85-1.78-2.85c-0.66-0.02-1.22,0-1.89-0.86
		c-0.73-0.94-1.42-2.95-0.2-3.59c0.75-0.65,2.49,0.3,3.08,1.36c0.53,0.96,0.34,1.54,0.14,2.21c0.62,0.97,1.31,1.93,1.94,2.79
		c-0.43-2.78,0.35-5.08,1.07-6.72c2.49,3.46,2.03,6.44,0.64,8.57c1.04,1.27,1.9,2.23,2.93,3.27c-0.3-1.95-0.06-4.89,0.65-6.53
		c2.32,3.2,2.64,6.47,1.58,8.63c0.97,0.82,1.88,1.61,2.84,2.22c-0.53-1.84-0.76-4.88-0.28-6.63c2.62,2.66,3.43,5.68,2.82,7.95
		c1.11,0.51,2.19,0.95,3.31,1.21c-0.53-1.09-1.04-2.94-0.95-4.12c1.96,1.25,2.46,2.7,2.38,4.23c0.31,0.03,1.15,0.41,1.45,0.42
		l-0.07-4.41c-1.93-0.5-4.85-1.62-5.81-5.36c1.81,0.43,4.13,0.87,5.81,2.36v-2.33c-3.91-0.33-7.86-3.1-9.81-8.65
		c3.4,0.59,6.67,2.21,9.81,4.25l0-2.05c-3.41-0.25-6.64-3.42-8.09-7.94c2.84,0.53,5.47,1.82,8.09,3.69v-2.58
		c-3.21-0.35-6.49-3.07-8.09-8.07c2.84,0.54,5.47,1.75,8.09,3.61v-2.88c-3.31-0.24-6.44-2.08-8.09-7.22
		c2.84,0.53,5.47,2.01,8.09,3.88v-3.21c-2.61-0.3-5.06-1.9-6.36-6.97c2.27,0.54,4.27,1.51,6.36,3.38l0-3.33
		c-2.01-0.35-3.86-1.16-4.87-5.08c1.37,0.32,3.03,0.39,4.88,2.04l-0.03-2.01c-1.52-2.25-1.19-3.25-1.01-5.04
		c0.17-1.63,0.78-2.83,2.53-2.92c1.75,0.08,2.35,1.28,2.53,2.92C130.42,225.49,130.76,226.49,129.24,228.74"/>
	<g>
		<path class="st2" d="M203.62,269.98c1.02-12.65,2.9-16.1,5.99-18.67l0.47-0.39l-1.28-8.42l-1.07,0.18
			c-1.41,0.23-2.72,1.3-3.75,2.47l-0.01-6.23l-9.4-5.56l0.01,4.68c-0.72-0.69-1.35-1.22-1.63-1.42c-0.95-0.7-1.8-1.03-2.66-1.03
			c-0.51,0-0.96,0.11-1.35,0.22c-0.67,0.18-1.13,0.32-2.11-0.1c-4.27-0.86-7.57,0.09-9.39,2.67c-1.71,2.42-1.99,6.16-0.72,9.76
			c0.82,2.31,2.31,4.96,4.43,7.86c0.86,1.18,8.34,9.07,10,10.76c1.1,1.12,2.27,2.22,3.47,3.32l0,2.87l-1.89-1.28l-2.5,5.78
			l0.78,0.49c1.73,1.08,3.55,4.09,4.8,19.88c-4.53,1.88-10.32,7.23-10.48,12.73c-0.08,2.64,1.17,6.3,7.66,8.84
			c1.25,0.49,2.6,1.01,3.94,1.56c0.08,3,0.16,6.22,0.22,9.67c-1.3,0.59-3.44,1.92-3.86,3.82c-0.37,1.71,0.68,3.36,3.12,4.92
			c0.28,0.18,0.58,0.29,0.88,0.41c0.01,0.96,0.02,1.97,0.03,2.96c-1.02,0.5-1.56,0.87-2.35,1.77c-0.44,0.5-0.84,1.03-0.61,1.54
			c0.06,0.13,0.25,0.44,0.75,0.44c0.34,0,0.83-0.14,1.74-0.51c0.24-0.1,0.44-0.17,0.62-0.23c0.46,1.13,1.49,1.86,2.66,1.86
			c1.26,0,2.29-0.84,2.57-2.1l0.03-0.12v-0.12c0-0.43-0.01-0.83-0.01-1.26c0.9-0.6,1.44-1.54,1.48-2.66
			c0.05-1.27-0.54-2.51-1.52-3.43c-0.01-1.43-0.02-2.78-0.02-4.15c4.16-0.97,8.44-3.68,8.84-7.28c0.25-2.24-0.95-5.52-8.09-8.4
			c-0.28-0.11-0.54-0.22-0.82-0.34c-0.01-6.02,0.01-11.46,0.04-16.4c7.4-3.75,12.44-7.26,13.08-11.96
			C216.39,284.46,212.37,278.67,203.62,269.98L203.62,269.98z M192.49,259.53c-11.56-10.48-12.05-15.26-11.3-17.17
			c0.86-2.23,3.82-2.31,4.43-2.16c0.36,0.08,0.38,0.15,0.5,0.62c0.18,0.74,0.45,1.86,2.67,2.59c2.47,0.82,4.36,1.27,5.79,1.41
			l0.02,16.63C193.91,260.82,193.22,260.19,192.49,259.53z M206.3,326.75c-0.02,0.47-0.58,1.38-3.68,2.41
			c-0.01-1.94-0.02-3.83-0.02-5.67C204.81,324.65,206.35,325.78,206.3,326.75z M201.82,240.14l0.01,4.7l-2.62-0.7l-1.36-0.7
			c0.16-0.86-0.36-1.94-1.13-2.99l0-3.33L201.82,240.14L201.82,240.14z M191.19,310.7c-0.18-1.46,1.37-3.35,5.08-6.17
			c0.18,3.15,0.34,6.7,0.48,10.67C193.51,313.64,191.37,312.19,191.19,310.7z M199.11,321.85c0.45,0.19,0.9,0.39,1.34,0.6
			c0.01,4.41,0.03,9.09,0.07,14.09c-0.37-0.2-0.79-0.49-1.13-0.83C199.32,330.66,199.22,326.05,199.11,321.85L199.11,321.85z
			 M199.5,345.03c-0.01-1.6-0.03-3.15-0.05-4.68c0.47,0.13,0.84,0.29,1.1,0.57c0.01,1.4,0.02,2.77,0.03,4.2
			C200.43,345.53,199.83,345.65,199.5,345.03L199.5,345.03z M200.44,316.83c-0.51-0.22-1.01-0.43-1.5-0.64
			c-1.13-33.05-3.61-37.77-6.02-39.57l0.74-1.72l3.1,2.1l-0.01-4.98c0.37,0.33,0.75,0.68,1.12,1.01c1.1,0.98,2.18,1.95,3.22,2.9
			C200.61,285.31,200.42,298.38,200.44,316.83L200.44,316.83z M201.65,268.05c-1.51-1.46-3.14-3-4.9-4.62l-0.02-18.76
			c0.2-0.07,0.36-0.16,0.51-0.27l1.34,0.65l1.82,2.9l0.57-0.18l-0.11-1.84l0.97-0.2l0,2.84l2.04,0.47c0.51-1.04,1.84-2.93,3.17-3.81
			l0.73,4.81C204.65,252.81,202.74,256.46,201.65,268.05L201.65,268.05z M209.34,288.52c-0.39,2.37-2.58,4.48-6.65,6.42
			c0.09-6.72,0.23-12.36,0.45-17.08C207.06,281.67,209.88,285.28,209.34,288.52L209.34,288.52z"/>
		<path class="st1" d="M189.58,240.58c-0.18-0.1-0.39-0.15-0.59-0.15c-0.34,0-0.63,0.15-0.76,0.4c-0.23,0.43,0,0.97,0.54,1.27
			c0.19,0.11,0.4,0.16,0.61,0.16c0.33,0,0.61-0.15,0.76-0.43C190.34,241.41,190.1,240.86,189.58,240.58L189.58,240.58z"/>
		<path class="st1" d="M191.46,237.29c-0.22-0.21-0.51-0.33-0.81-0.33c-0.23,0-0.43,0.08-0.55,0.21c-0.14,0.14-0.22,0.34-0.22,0.56
			c0.01,0.28,0.15,0.59,0.4,0.81c0.23,0.22,0.52,0.34,0.79,0.34c0.23,0,0.43-0.08,0.57-0.24c0.14-0.15,0.21-0.35,0.2-0.57
			C191.85,237.8,191.7,237.51,191.46,237.29L191.46,237.29z"/>
	</g>
	<path class="st2" d="M147.29,319.35l-0.01-15.72h-27.9v27.89h8.62v15.73h27.89v-27.9H147.29z M139.03,307.18h4.57v11.67h-4.57
		V307.18z M143.71,331.52v3.55h-3.55v-3.55H143.71z M123.56,307.18h11.67v4.57h-11.67C123.56,311.75,123.56,307.18,123.56,307.18z
		 M127.99,327.98h-4.56v-11.66h4.56C127.99,316.31,127.99,327.98,127.99,327.98z M131.54,315.8h3.54v3.55h-3.54V315.8z
		 M131.93,323.41h11.67v4.57h-11.67V323.41z M136.62,343.2h-4.57v-11.68h4.57V343.2z M151.71,343.07h-11.66v-4.57h11.66V343.07z
		 M151.83,334.95h-4.56v-11.66h4.56V334.95z"/>
</g>
</svg>
