<?xml version="1.0" encoding="utf-8"?>
<!-- Generator: Adobe Adobe Illustrator 24.2.0, SVG Export Plug-In . SVG Version: 6.00 Build 0)  -->
<svg version="1.1" id="Layer_1" xmlns="http://www.w3.org/2000/svg" xmlns:xlink="http://www.w3.org/1999/xlink" x="0px" y="0px"
	 width="200px" height="200px" viewBox="0 0 200 200" style="enable-background:new 0 0 200 200;" xml:space="preserve">
<style type="text/css">
	.st0{fill:#FF3D2E;}
	.st1{fill:#FFFFFF;}
</style>
<g>
	<g id="Layer_1_1_">
		<path class="st0" d="M108.54,71.69c15.7,0,28.42,12.73,28.42,28.42s-12.73,28.42-28.42,28.42s-28.42-12.73-28.42-28.42
			S92.84,71.69,108.54,71.69"/>
		<path class="st1" d="M142.1,135.37c-8.56,7.7-19.86,11.96-32.27,11.96c-27.34,0-47.42-20.08-47.42-47.65s19.44-46.8,47.42-46.8
			c12.19,0,23.71,4.06,32.48,11.75l5.97,5.13l26.51-26.5l-6.63-5.99c-15.6-14.08-36.31-21.99-58.33-21.99
			C60.69,15.3,25,50.76,25,99.48c0,48.51,36.54,85.24,84.83,85.24c22.44,0,43.36-7.9,58.76-22.21l6.41-5.99l-26.92-26.48
			L142.1,135.37z"/>
	</g>
</g>
</svg>
