<?xml version="1.0" encoding="utf-8"?>
<!-- Generator: Adobe Adobe Illustrator 24.2.0, SVG Export Plug-In . SVG Version: 6.00 Build 0)  -->
<svg version="1.1" id="Layer_1" xmlns="http://www.w3.org/2000/svg" xmlns:xlink="http://www.w3.org/1999/xlink" x="0px" y="0px"
	 width="800px" height="800px" viewBox="0 0 800 800" style="enable-background:new 0 0 800 800;" xml:space="preserve">
<style type="text/css">
	.st0{fill:#3C5A9A;}
</style>
<g id="SVGRepo_iconCarrier">
	<path class="st0" d="M400,0C179.06,0,0,179.06,0,400s179.06,400,400,400s400-179.06,400-400S620.94,0,400,0z M488.28,332.19
		l-4.53,59.84h-61.41v207.81h-77.5V392.03h-41.41v-59.84h41.41v-40.16c0-17.66,0.47-45,13.28-62.03
		c13.59-17.97,32.19-30.16,64.22-30.16c52.19,0,74.06,7.5,74.06,7.5l-10.31,61.25c0,0-17.19-5-33.28-5
		c-16.09,0-30.47,5.78-30.47,21.88v46.72H488.28z"/>
</g>
</svg>
