<?xml version="1.0" encoding="utf-8"?>
<!-- Generator: Adobe Adobe Illustrator 24.2.0, SVG Export Plug-In . SVG Version: 6.00 Build 0)  -->
<svg version="1.1" id="Layer_1" xmlns="http://www.w3.org/2000/svg" xmlns:xlink="http://www.w3.org/1999/xlink" x="0px" y="0px"
	 width="800px" height="800px" viewBox="0 0 800 800" style="enable-background:new 0 0 800 800;" xml:space="preserve">
<style type="text/css">
	.st0{fill:url(#SVGID_1_);}
	.st1{fill:url(#SVGID_2_);}
</style>
<g>
	
		<radialGradient id="SVGID_1_" cx="130.8373" cy="30.0225" r="956.9083" gradientTransform="matrix(1 0 0 -1 0.05 800)" gradientUnits="userSpaceOnUse">
		<stop  offset="0.09" style="stop-color:#FA8F21"/>
		<stop  offset="0.78" style="stop-color:#D82D7E"/>
	</radialGradient>
	<path class="st0" d="M277.86,400c0-67.47,54.68-122.18,122.15-122.18S522.2,332.53,522.2,400s-54.71,122.18-122.18,122.18
		S277.86,467.47,277.86,400 M211.81,400c0,103.94,84.26,188.2,188.2,188.2s188.2-84.26,188.2-188.2s-84.26-188.2-188.2-188.2
		S211.81,296.06,211.81,400 M551.68,204.34c-0.01,24.29,19.67,43.99,43.96,44c24.29,0.01,43.99-19.67,44-43.96
		c0.01-24.29-19.67-43.99-43.96-44h-0.02C571.39,160.38,551.71,180.06,551.68,204.34 M251.94,698.33
		c-35.73-1.63-55.16-7.58-68.06-12.61c-17.11-6.66-29.32-14.6-42.16-27.42c-12.84-12.82-20.78-25.02-27.42-42.13
		c-5.03-12.9-10.98-32.33-12.61-68.06c-1.78-38.63-2.13-50.24-2.13-148.12s0.38-109.45,2.13-148.12
		c1.63-35.73,7.62-55.12,12.61-68.06c6.66-17.11,14.6-29.32,27.42-42.16c12.82-12.84,25.02-20.78,42.16-27.42
		c12.9-5.03,32.33-10.98,68.06-12.61c38.63-1.78,50.24-2.13,148.07-2.13s109.45,0.38,148.12,2.13c35.73,1.63,55.12,7.62,68.06,12.61
		c17.11,6.63,29.32,14.6,42.16,27.42c12.84,12.82,20.75,25.05,27.42,42.16c5.03,12.9,10.98,32.33,12.61,68.06
		c1.78,38.67,2.13,50.24,2.13,148.12s-0.35,109.45-2.13,148.12c-1.63,35.73-7.61,55.16-12.61,68.06
		c-6.66,17.11-14.6,29.32-27.42,42.13c-12.82,12.81-25.05,20.75-42.16,27.42c-12.9,5.03-32.33,10.98-68.06,12.61
		c-38.63,1.78-50.24,2.13-148.12,2.13S290.56,700.11,251.94,698.33 M248.91,35.7c-39.02,1.78-65.68,7.96-88.96,17.02
		C135.83,62.09,115.42,74.64,95.02,95s-32.92,40.81-42.28,64.93c-9.06,23.3-15.25,49.95-17.02,88.96
		C33.91,287.97,33.5,300.47,33.5,400s0.41,112.03,2.22,151.11c1.78,39.02,7.96,65.66,17.02,88.96c9.36,24.1,21.88,44.57,42.28,64.93
		s40.81,32.89,64.93,42.28c23.33,9.06,49.95,15.25,88.96,17.02c39.1,1.78,51.57,2.22,151.11,2.22s112.03-0.41,151.11-2.22
		c39.02-1.78,65.66-7.96,88.96-17.02c24.1-9.38,44.53-21.91,64.93-42.28c20.4-20.37,32.89-40.83,42.28-64.93
		c9.06-23.3,15.28-49.95,17.02-88.96c1.78-39.11,2.19-51.57,2.19-151.11s-0.41-112.03-2.19-151.11
		c-1.78-39.02-7.96-65.68-17.02-88.96c-9.38-24.1-21.91-44.53-42.28-64.93c-20.37-20.4-40.83-32.92-64.9-42.28
		c-23.33-9.06-49.97-15.28-88.96-17.02c-39.08-1.78-51.57-2.22-151.11-2.22S288.01,33.9,248.91,35.7"/>
	
		<radialGradient id="SVGID_2_" cx="478" cy="-2.8172" r="754.1758" gradientTransform="matrix(1 0 0 -1 0.05 800)" gradientUnits="userSpaceOnUse">
		<stop  offset="0.64" style="stop-color:#8C3AAA;stop-opacity:0"/>
		<stop  offset="1" style="stop-color:#8C3AAA"/>
	</radialGradient>
	<path class="st1" d="M277.86,400c0-67.47,54.68-122.18,122.15-122.18S522.2,332.53,522.2,400s-54.71,122.18-122.18,122.18
		S277.86,467.47,277.86,400 M211.81,400c0,103.94,84.26,188.2,188.2,188.2s188.2-84.26,188.2-188.2s-84.26-188.2-188.2-188.2
		S211.81,296.06,211.81,400 M551.68,204.34c-0.01,24.29,19.67,43.99,43.96,44c24.29,0.01,43.99-19.67,44-43.96
		c0.01-24.29-19.67-43.99-43.96-44h-0.02C571.39,160.38,551.71,180.06,551.68,204.34 M251.94,698.33
		c-35.73-1.63-55.16-7.58-68.06-12.61c-17.11-6.66-29.32-14.6-42.16-27.42c-12.84-12.82-20.78-25.02-27.42-42.13
		c-5.03-12.9-10.98-32.33-12.61-68.06c-1.78-38.63-2.13-50.24-2.13-148.12s0.38-109.45,2.13-148.12
		c1.63-35.73,7.62-55.12,12.61-68.06c6.66-17.11,14.6-29.32,27.42-42.16c12.82-12.84,25.02-20.78,42.16-27.42
		c12.9-5.03,32.33-10.98,68.06-12.61c38.63-1.78,50.24-2.13,148.07-2.13s109.45,0.38,148.12,2.13c35.73,1.63,55.12,7.62,68.06,12.61
		c17.11,6.63,29.32,14.6,42.16,27.42c12.84,12.82,20.75,25.05,27.42,42.16c5.03,12.9,10.98,32.33,12.61,68.06
		c1.78,38.67,2.13,50.24,2.13,148.12s-0.35,109.45-2.13,148.12c-1.63,35.73-7.61,55.16-12.61,68.06
		c-6.66,17.11-14.6,29.32-27.42,42.13c-12.82,12.81-25.05,20.75-42.16,27.42c-12.9,5.03-32.33,10.98-68.06,12.61
		c-38.63,1.78-50.24,2.13-148.12,2.13S290.56,700.11,251.94,698.33 M248.91,35.7c-39.02,1.78-65.68,7.96-88.96,17.02
		C135.83,62.09,115.42,74.64,95.02,95s-32.92,40.81-42.28,64.93c-9.06,23.3-15.25,49.95-17.02,88.96
		C33.91,287.97,33.5,300.47,33.5,400s0.41,112.03,2.22,151.11c1.78,39.02,7.96,65.66,17.02,88.96c9.36,24.1,21.88,44.57,42.28,64.93
		s40.81,32.89,64.93,42.28c23.33,9.06,49.95,15.25,88.96,17.02c39.1,1.78,51.57,2.22,151.11,2.22s112.03-0.41,151.11-2.22
		c39.02-1.78,65.66-7.96,88.96-17.02c24.1-9.38,44.53-21.91,64.93-42.28c20.4-20.37,32.89-40.83,42.28-64.93
		c9.06-23.3,15.28-49.95,17.02-88.96c1.78-39.11,2.19-51.57,2.19-151.11s-0.41-112.03-2.19-151.11
		c-1.78-39.02-7.96-65.68-17.02-88.96c-9.38-24.1-21.91-44.53-42.28-64.93c-20.37-20.4-40.83-32.92-64.9-42.28
		c-23.33-9.06-49.97-15.28-88.96-17.02c-39.08-1.78-51.57-2.22-151.11-2.22S288.01,33.9,248.91,35.7"/>
</g>
</svg>
