<?xml version="1.0" encoding="utf-8"?>
<!-- Generator: Adobe Adobe Illustrator 24.2.0, SVG Export Plug-In . SVG Version: 6.00 Build 0)  -->
<svg version="1.1" id="Layer_1" xmlns="http://www.w3.org/2000/svg" xmlns:xlink="http://www.w3.org/1999/xlink" x="0px" y="0px"
	 width="800px" height="800px" viewBox="0 0 800 800" style="enable-background:new 0 0 800 800;" xml:space="preserve">
<style type="text/css">
	.st0{fill-rule:evenodd;clip-rule:evenodd;fill:#0A66C2;}
</style>
<g id="SVGRepo_iconCarrier">
	<path class="st0" d="M200,66.67c-73.64,0-133.33,59.7-133.33,133.33v400c0,73.64,59.7,133.33,133.33,133.33h400
		c73.64,0,133.33-59.7,133.33-133.33V200c0-73.64-59.7-133.33-133.33-133.33H200z M133.33,200c0-36.82,29.85-66.67,66.67-66.67h400
		c36.82,0,66.67,29.85,66.67,66.67v400c0,36.82-29.85,66.67-66.67,66.67H200c-36.82,0-66.67-29.85-66.67-66.67V200z M300,366.67
		c0-18.41-14.92-33.33-33.33-33.33s-33.33,14.92-33.33,33.33v200c0,18.41,14.92,33.33,33.33,33.33S300,585.08,300,566.67V366.67z
		 M316.67,250c0,27.61-22.39,50-50,50s-50-22.39-50-50s22.39-50,50-50S316.67,222.39,316.67,250z M400,333.33
		c11.32,0,21.32,5.64,27.34,14.26c17.09-9.26,36.11-14.26,55.99-14.26c71.98,0,116.67,64.19,116.67,119.05v0.25v0.25v0.25v0.25v0.25
		v0.26v0.25v0.26v0.26v0.26v0.26v0.26v0.26v0.26v0.26v0.26v0.26V457v0.26v0.26v0.27v0.26v0.26v0.27v0.26v0.27v0.27v0.27v0.27v0.27
		v0.27v0.27V461v0.27v0.27v0.27v0.27v0.27v0.27v0.27v0.28v0.27v0.27V464v0.28v0.27v0.28v0.28v0.28v0.28v0.28v0.28v0.28v0.28v0.28
		v0.28v0.28v0.28v0.28v0.28v0.28v0.28v0.28v0.28v0.28v0.28v0.29v0.28v0.29v0.29v0.29v0.28v0.29v0.29v0.29v0.29v0.29v0.29v0.29v0.29
		v0.29v0.29v0.29v0.29v0.29v0.29v0.29v0.29v0.29v0.29v0.29v0.29v0.29v0.29v0.29v0.29v0.29v0.29v0.29v0.29v0.29v0.3v0.29v0.3v0.29
		v0.3v0.29v0.3v0.3v0.3v0.29v0.3v0.3v0.3v0.3v0.3v0.3v0.3v0.3v0.3v0.3v0.3v0.3v0.3v0.3v0.3v0.3v0.3v0.3v0.3v0.3v0.3v0.3v0.3v0.3v0.3
		v0.3v0.3v0.3v0.3v0.3v0.3v0.3v0.3v0.3v0.3v0.3v0.3v0.3v0.3v0.3v0.3v0.3v0.3v0.3v0.3v0.3v0.3v0.3v0.3v0.3v0.3v0.3v0.3v0.3v0.3v0.3
		v0.3v0.3v0.3v0.3v0.3v0.3v0.3v0.3v0.3v0.3v0.3v0.3v0.3v0.3v0.3v0.3v0.29v0.3v0.3v0.29v0.3v0.29v0.3v0.29v0.3v0.29v0.29v0.29v0.29
		v0.29v0.29v0.29v0.29v0.29v0.29v0.29v0.29v0.29v0.29v0.29v0.29v0.29v0.29v0.29v0.29v0.29v0.29v0.29v0.29v0.29v0.29v0.29v0.29v0.29
		v0.28v0.29v0.29v0.29v0.28v0.28v0.29v0.28v0.28v0.28v0.28v0.28v0.28v0.28v0.28v0.28v0.28v0.28v0.28v0.28v0.28v0.28v0.28v0.28v0.28
		v0.28v0.28v0.28v0.27v0.28v0.27v0.27v0.27v0.27v0.27v0.27v0.27v0.27v0.27v0.27v0.27v0.27v0.27v0.27v0.27v0.27v0.27v0.27v0.26v0.26
		v0.27v0.26v0.26v0.26v0.26v0.26v0.26v0.26v0.26v0.26v0.26v0.26V533v0.26v0.26v0.25v0.26v0.25v0.25v0.25v0.25v0.25v0.25v0.25v0.25
		v0.25v0.25v0.25v0.25v0.25v0.24v0.25v0.24v0.24v0.24v0.24v0.24v0.24v0.24v0.24v0.24v0.24v0.24v0.24v0.23v0.23v0.23v0.23v0.23v0.23
		v0.23v0.23v0.23v0.23v0.23v0.23v0.23v0.22v0.22v0.22v0.22v0.22v0.22v0.22v0.22v0.22v0.22v0.22v0.21v0.22v0.21v0.21v0.21v0.21v0.21
		v0.21v0.21v0.21v0.21v0.21v0.21v0.2v0.2v0.2v0.2v0.2v0.2v0.2v0.2v0.2v0.2v0.19v0.19v0.19v0.19v0.19v0.19v0.19v0.19v0.19v0.19v0.18
		v0.18v0.18v0.18v0.18v0.18v0.18v0.18v0.18v0.18v0.17v0.17v0.17v0.17v0.17v0.17v0.17v0.17v0.17v0.16v0.16v0.16v0.16v0.16v0.16v0.16
		v0.16v0.16v0.15v0.15v0.15v0.15v0.15v0.15v0.15v0.15v0.15v0.14v0.14v0.14v0.14v0.14v0.14v0.14v0.13v0.14v0.13v0.13v0.13v0.13v0.13
		v0.13v0.13v0.12v0.12v0.12v0.12v0.12v0.12v0.12v0.12v0.11v0.11v0.11v0.11v0.11v0.11v0.11v0.11v0.1v0.1v0.1v0.1v0.1v0.1v0.1v0.1
		v0.09v0.09v0.09v0.09v0.09v0.09v0.08v0.08v0.08v0.08v0.08v0.08v0.08v0.08v0.07v0.07v0.07v0.07v0.07v0.07v0.07v0.06v0.06v0.06v0.06
		v0.06v0.06v0.05v0.05v0.05v0.05v0.05v0.05V566v0.05v0.04v0.04v0.04v0.04v0.04v0.04v0.03v0.03v0.03v0.03v0.03v0.03v0.03v0.02v0.02
		v0.02v0.02v0.02v0.01v0.01v0.01v0.01v0.01v0.01v0.01v0v0l0,0c0,18.41-14.92,33.33-33.33,33.33s-33.33-14.92-33.33-33.33l0,0v0v0
		v-0.01v-0.01v-0.01v-0.01v-0.01v-0.01v-0.01v-0.02v-0.02v-0.02v-0.02v-0.02v-0.03v-0.03v-0.03v-0.03v-0.03v-0.03v-0.03v-0.04v-0.04
		v-0.04v-0.04v-0.04v-0.04V566v-0.05v-0.05v-0.05v-0.05v-0.05v-0.05v-0.05v-0.06v-0.06v-0.06v-0.06v-0.06v-0.06v-0.07v-0.07v-0.07
		v-0.07v-0.07v-0.07v-0.07v-0.08v-0.08v-0.08v-0.08v-0.08v-0.08v-0.08v-0.08v-0.09v-0.09v-0.09v-0.09v-0.09v-0.09v-0.1v-0.1v-0.1
		v-0.1v-0.1v-0.1v-0.1v-0.1v-0.11v-0.11v-0.11v-0.11v-0.11v-0.11v-0.11v-0.11v-0.12v-0.12v-0.12v-0.12v-0.12v-0.12v-0.12v-0.12
		v-0.13v-0.13v-0.13v-0.13v-0.13v-0.13v-0.13v-0.14v-0.13v-0.14v-0.14v-0.14v-0.14v-0.14v-0.14v-0.14v-0.15v-0.15v-0.15v-0.15v-0.15
		v-0.15v-0.15v-0.15v-0.15v-0.16v-0.16v-0.16v-0.16v-0.16v-0.16v-0.16v-0.16v-0.16v-0.17v-0.17v-0.17v-0.17v-0.17v-0.17v-0.17v-0.17
		v-0.17v-0.18v-0.18v-0.18v-0.18v-0.18v-0.18v-0.18v-0.18v-0.18v-0.18v-0.19v-0.19v-0.19v-0.19v-0.19v-0.19v-0.19v-0.19v-0.19v-0.19
		v-0.2v-0.2v-0.2V550v-0.2v-0.2v-0.2v-0.2V549v-0.2v-0.21v-0.21v-0.21v-0.21v-0.21v-0.21v-0.21v-0.21v-0.21v-0.21v-0.21v-0.22v-0.21
		v-0.22v-0.22v-0.22v-0.22v-0.22v-0.22v-0.22v-0.22v-0.22v-0.22v-0.22v-0.23v-0.23v-0.23v-0.23v-0.23v-0.23v-0.23v-0.23v-0.23v-0.23
		v-0.23v-0.23v-0.23v-0.24v-0.24v-0.24v-0.24v-0.24v-0.24v-0.24v-0.24v-0.24v-0.24v-0.24v-0.24v-0.25v-0.24v-0.25v-0.25v-0.25v-0.25
		v-0.25v-0.25v-0.25v-0.25v-0.25v-0.25v-0.25v-0.25v-0.25v-0.26v-0.25v-0.26V533v-0.26v-0.26v-0.26v-0.26v-0.26v-0.26v-0.26v-0.26
		v-0.26v-0.26v-0.26v-0.26v-0.27v-0.26v-0.26v-0.27v-0.27v-0.27v-0.27v-0.27v-0.27v-0.27v-0.27v-0.27v-0.27v-0.27v-0.27v-0.27v-0.27
		v-0.27v-0.27v-0.27v-0.27v-0.28v-0.27v-0.28v-0.28v-0.28v-0.28v-0.28v-0.28v-0.28v-0.28v-0.28v-0.28v-0.28v-0.28v-0.28v-0.28v-0.28
		v-0.28v-0.28v-0.28v-0.28v-0.28v-0.28v-0.29v-0.28v-0.28v-0.29v-0.29v-0.29v-0.28v-0.29v-0.29v-0.29v-0.29v-0.29v-0.29v-0.29v-0.29
		v-0.29v-0.29v-0.29v-0.29v-0.29v-0.29v-0.29v-0.29v-0.29v-0.29v-0.29v-0.29v-0.29v-0.29v-0.29v-0.29v-0.29v-0.29v-0.29v-0.29v-0.29
		v-0.3v-0.29v-0.3v-0.29v-0.3v-0.29v-0.3v-0.3v-0.29v-0.3v-0.3v-0.3v-0.3v-0.3v-0.3v-0.3v-0.3v-0.3v-0.3v-0.3v-0.3v-0.3v-0.3v-0.3
		v-0.3v-0.3v-0.3v-0.3v-0.3v-0.3v-0.3v-0.3v-0.3v-0.3v-0.3v-0.3v-0.3v-0.3v-0.3v-0.3v-0.3v-0.3v-0.3v-0.3v-0.3v-0.3v-0.3v-0.3v-0.3
		v-0.3v-0.3v-0.3v-0.3v-0.3v-0.3v-0.3v-0.3v-0.3v-0.3v-0.3v-0.3v-0.3v-0.3v-0.3v-0.3v-0.3v-0.3v-0.3v-0.3v-0.3v-0.3v-0.3v-0.3v-0.3
		v-0.3v-0.3v-0.3v-0.3v-0.3v-0.3v-0.3v-0.29v-0.3v-0.3v-0.3v-0.29v-0.3v-0.29v-0.3v-0.29v-0.3v-0.29v-0.29v-0.29v-0.29v-0.29v-0.29
		v-0.29v-0.29v-0.29v-0.29v-0.29v-0.29v-0.29v-0.29v-0.29v-0.29v-0.29v-0.29v-0.29v-0.29v-0.29v-0.29v-0.29v-0.29v-0.29v-0.29v-0.29
		v-0.29v-0.29v-0.28v-0.29v-0.29v-0.29v-0.28v-0.29v-0.28v-0.28v-0.28v-0.28v-0.28v-0.28v-0.28v-0.28v-0.28v-0.28v-0.28v-0.28v-0.28
		v-0.28v-0.28v-0.28v-0.28v-0.28v-0.28v-0.28v-0.27V464v-0.28v-0.27v-0.27v-0.28v-0.27v-0.27v-0.27v-0.27v-0.27v-0.27V461v-0.27
		v-0.27v-0.27v-0.27v-0.27v-0.27v-0.27v-0.27v-0.26v-0.27v-0.26v-0.26v-0.27v-0.26V457v-0.26v-0.26v-0.26v-0.26v-0.26v-0.26v-0.26
		v-0.26v-0.26v-0.26v-0.26v-0.25v-0.26v-0.25v-0.25v-0.25v-0.25v-0.25c0-25.61-21.98-52.38-50-52.38c-17.47,0-36.75,9.5-50,32.1
		v0.09v0.34v0.34v0.34v0.35v0.34v0.35v0.35v0.35v0.35v0.35V436v0.35v0.35v0.35v0.35v0.35v0.35v0.35v0.35v0.35v0.35v0.36v0.35v0.36
		v0.36v0.35v0.36v0.36v0.36v0.36v0.36v0.36v0.36v0.36v0.36v0.36v0.36v0.36v0.36v0.36v0.36v0.36v0.36v0.36v0.36v0.36v0.37v0.36v0.37
		v0.36v0.37v0.37v0.37v0.37v0.37v0.37v0.37v0.37v0.37v0.37v0.37v0.37v0.37v0.37v0.37v0.37v0.37v0.37v0.37v0.37v0.37v0.37v0.37v0.37
		v0.37v0.37v0.37v0.37v0.37v0.37v0.37v0.37v0.37v0.37v0.38v0.37v0.37v0.37v0.37v0.37v0.38v0.37v0.37v0.38v0.37v0.38v0.37v0.38v0.37
		v0.37v0.38v0.38v0.37v0.38v0.37v0.38v0.37v0.38v0.38v0.37v0.38v0.37v0.38v0.38v0.37v0.38v0.37v0.38v0.37v0.38v0.37v0.38v0.37v0.38
		v0.37v0.38v0.37v0.38v0.37v0.37v0.37v0.38v0.37v0.37v0.37v0.37v0.37v0.37v0.37v0.37v0.37v0.37v0.37v0.37v0.37v0.37v0.37v0.37v0.37
		v0.37v0.37v0.37v0.37v0.37v0.37v0.37v0.37v0.37v0.37v0.37v0.37v0.37v0.37v0.37v0.37v0.37v0.37v0.37v0.37v0.37v0.37v0.36v0.37v0.36
		v0.37v0.36v0.36v0.36v0.36v0.36v0.36v0.36v0.36v0.36v0.36v0.36v0.36v0.36v0.36v0.36v0.36v0.36v0.36v0.36v0.36v0.36v0.36v0.36v0.35
		v0.35v0.35v0.35v0.35v0.35v0.35v0.35v0.35v0.35v0.35v0.35v0.35v0.35V510v0.35v0.35v0.34v0.35v0.35v0.34v0.34v0.34v0.34v0.34v0.34
		v0.34v0.34v0.34v0.34v0.34v0.34v0.34v0.34v0.33v0.34v0.33v0.33v0.33v0.33v0.33v0.33v0.33v0.33v0.33v0.33v0.33v0.33v0.33v0.32v0.33
		v0.32v0.32v0.32v0.32v0.32v0.32v0.32v0.32V525v0.32v0.32v0.32v0.31v0.31v0.31v0.31v0.31v0.31v0.31v0.31v0.31v0.31v0.31v0.31v0.3
		v0.31v0.3v0.3v0.3v0.3v0.3v0.3v0.3v0.3v0.3v0.29v0.29v0.29v0.29v0.29v0.29v0.29v0.29v0.29v0.29v0.29v0.28v0.28v0.28v0.28v0.28v0.28
		v0.28v0.28v0.28v0.28v0.28v0.27v0.27v0.27v0.27v0.27v0.27v0.27v0.27v0.27v0.26v0.26v0.26v0.26v0.26v0.26v0.26v0.26v0.25v0.26v0.25
		v0.25v0.25v0.25v0.25v0.25v0.24v0.25v0.24v0.24v0.24v0.24v0.24v0.24v0.24v0.23v0.24v0.23v0.23v0.23v0.23v0.23v0.23v0.22v0.23v0.22
		v0.22v0.22v0.22v0.22v0.22v0.21v0.21v0.21v0.21v0.21v0.21v0.21v0.21v0.2v0.2v0.2v0.2v0.2v0.2v0.2v0.19v0.19v0.19v0.19v0.19v0.19
		v0.19v0.19v0.18v0.18v0.18v0.18v0.18v0.18v0.17v0.17v0.17v0.17v0.17v0.17v0.17v0.16v0.16v0.16v0.16v0.16v0.16v0.15v0.16v0.15v0.15
		v0.15v0.15v0.15v0.14v0.14v0.14v0.14v0.14v0.14v0.13v0.13v0.13v0.13v0.13v0.13v0.13v0.12v0.12v0.12v0.12v0.12v0.12v0.11v0.11v0.11
		v0.11v0.11v0.11v0.1v0.1v0.1v0.1v0.1v0.1v0.09v0.09v0.09v0.09v0.09v0.09v0.08v0.08v0.08v0.08v0.08v0.07v0.07v0.07v0.07v0.07v0.07
		v0.06v0.06v0.06v0.06v0.06v0.05v0.05v0.05v0.05v0.05v0.05v0.04v0.04v0.04v0.04v0.04v0.03v0.03v0.03v0.03v0.03v0.02v0.02v0.02v0.02
		v0.02v0.01v0.01v0.01v0.01v0.01v0.01v0l0,0c0,18.41-14.92,33.33-33.33,33.33c-18.41,0-33.33-14.92-33.33-33.33l0,0v0v-0.01v-0.01
		v-0.01v-0.01v-0.01v-0.01v-0.02v-0.02v-0.02v-0.02v-0.02v-0.03v-0.03v-0.03v-0.03v-0.03v-0.04v-0.04v-0.04v-0.04v-0.04v-0.05v-0.05
		v-0.05v-0.05v-0.05v-0.05v-0.06v-0.06v-0.06v-0.06v-0.06v-0.07v-0.07v-0.07v-0.07v-0.07v-0.07v-0.08v-0.08v-0.08v-0.08v-0.08v-0.09
		v-0.09v-0.09v-0.09v-0.09v-0.09v-0.1V564v-0.1v-0.1v-0.1v-0.1v-0.11v-0.11v-0.11v-0.11v-0.11v-0.11v-0.12v-0.12v-0.12v-0.12v-0.12
		v-0.12v-0.13v-0.13v-0.13v-0.13v-0.13v-0.13v-0.13v-0.14v-0.14v-0.14v-0.14v-0.14v-0.14v-0.15v-0.15v-0.15v-0.15v-0.15v-0.16v-0.15
		v-0.16v-0.16v-0.16v-0.16v-0.16v-0.16v-0.17v-0.17v-0.17v-0.17v-0.17v-0.17v-0.17v-0.18v-0.18v-0.18v-0.18v-0.18v-0.18v-0.19v-0.19
		v-0.19v-0.19v-0.19v-0.19v-0.19v-0.19v-0.2v-0.2v-0.2v-0.2v-0.2v-0.2v-0.2v-0.21v-0.21v-0.21v-0.21v-0.21v-0.21v-0.21v-0.21v-0.22
		v-0.22v-0.22v-0.22v-0.22v-0.22v-0.23v-0.22v-0.23v-0.23v-0.23v-0.23v-0.23v-0.23v-0.24v-0.23v-0.24v-0.24v-0.24v-0.24v-0.24v-0.24
		v-0.24v-0.25v-0.24v-0.25v-0.25v-0.25v-0.25v-0.25v-0.25v-0.26v-0.25v-0.26v-0.26v-0.26v-0.26v-0.26v-0.26v-0.26v-0.26v-0.27v-0.27
		v-0.27v-0.27v-0.27v-0.27v-0.27v-0.27v-0.27v-0.28v-0.28v-0.28v-0.28v-0.28v-0.28v-0.28v-0.28v-0.28v-0.28v-0.28v-0.29v-0.29v-0.29
		v-0.29v-0.29v-0.29v-0.29v-0.29v-0.29v-0.29v-0.29v-0.3v-0.3v-0.3v-0.3v-0.3v-0.3v-0.3v-0.3v-0.3v-0.31v-0.3v-0.31v-0.31v-0.31
		v-0.31v-0.31v-0.31v-0.31v-0.31v-0.31v-0.31v-0.31v-0.31v-0.32v-0.32V525v-0.32v-0.32v-0.32v-0.32v-0.32v-0.32v-0.32v-0.32v-0.32
		v-0.33v-0.32v-0.33v-0.33v-0.33v-0.33v-0.33v-0.33v-0.33v-0.33v-0.33v-0.33v-0.33v-0.33v-0.33v-0.34v-0.33v-0.34v-0.34v-0.34v-0.34
		v-0.34v-0.34v-0.34v-0.34v-0.34v-0.34v-0.34v-0.34v-0.34v-0.34v-0.35v-0.35v-0.34v-0.35V510v-0.35v-0.35v-0.35v-0.35v-0.35v-0.35
		v-0.35v-0.35v-0.35v-0.35v-0.35v-0.35v-0.35v-0.35v-0.35v-0.36v-0.36v-0.36v-0.36v-0.36v-0.36v-0.36v-0.36v-0.36v-0.36v-0.36v-0.36
		v-0.36v-0.36v-0.36v-0.36v-0.36v-0.36v-0.36v-0.36v-0.36v-0.36v-0.36v-0.37v-0.36v-0.37v-0.36v-0.37v-0.37v-0.37v-0.37v-0.37v-0.37
		v-0.37v-0.37v-0.37v-0.37v-0.37v-0.37v-0.37v-0.37v-0.37v-0.37v-0.37v-0.37v-0.37v-0.37v-0.37v-0.37v-0.37v-0.37v-0.37v-0.37v-0.37
		v-0.37v-0.37v-0.37v-0.37v-0.37v-0.37v-0.37v-0.37v-0.37v-0.37v-0.37v-0.37v-0.38v-0.37v-0.37v-0.37v-0.38v-0.37v-0.38v-0.37v-0.38
		v-0.37v-0.38v-0.37v-0.38v-0.37v-0.38v-0.37v-0.38v-0.37v-0.38v-0.38v-0.37v-0.38v-0.37v-0.38v-0.38v-0.37v-0.38v-0.37v-0.38v-0.37
		v-0.38v-0.38v-0.37v-0.37v-0.38v-0.37v-0.38v-0.37v-0.38v-0.37v-0.37v-0.38v-0.37v-0.37v-0.37v-0.37v-0.37v-0.38v-0.37v-0.37v-0.37
		v-0.37v-0.37v-0.37v-0.37v-0.37v-0.37v-0.37v-0.37v-0.37v-0.37v-0.37v-0.37v-0.37v-0.37v-0.37v-0.37v-0.37v-0.37v-0.37v-0.37v-0.37
		v-0.37v-0.37v-0.37v-0.37v-0.37v-0.37v-0.37v-0.37v-0.37v-0.37v-0.36v-0.37v-0.36v-0.37v-0.36v-0.36v-0.36v-0.36v-0.36v-0.36v-0.36
		v-0.36v-0.36v-0.36v-0.36v-0.36v-0.36v-0.36v-0.36v-0.36v-0.36v-0.36v-0.36v-0.36v-0.35v-0.36v-0.36v-0.35v-0.36v-0.35v-0.35v-0.35
		v-0.35v-0.35v-0.35v-0.35v-0.35v-0.35V436v-0.35v-0.35v-0.35v-0.35v-0.35v-0.35v-0.34v-0.35v-0.34v-0.34v-0.34v-0.34v-0.34v-0.34
		v-0.34v-0.34v-0.34v-0.34v-0.34v-0.34v-0.34v-0.34v-0.34v-0.33v-0.34v-0.33v-0.33v-0.33v-0.33v-0.33v-0.33v-0.33v-0.33v-0.33v-0.33
		v-0.33v-0.13v-0.13v-0.13v-0.13v-0.13v-0.13v-0.13v-0.13v-0.13v-0.13v-0.13v-0.13v-0.13v-0.13v-0.14v-0.13v-0.14v-0.14v-0.13v-0.14
		V421v-0.14v-0.14v-0.14v-0.14v-0.14v-0.14v-0.14v-0.14v-0.14v-0.14v-0.14v-0.14v-0.14v-0.14v-0.14v-0.14v-0.14v-0.14v-0.14v-0.14
		v-0.14v-0.14v-0.14v-0.14v-0.14v-0.14v-0.14v-0.14v-0.14v-0.14v-0.14v-0.14v-0.14v-0.14v-0.14v-0.14v-0.14v-0.14v-0.15v-0.14v-0.14
		v-0.14v-0.15v-0.14v-0.15v-0.14v-0.15v-0.15v-0.14v-0.15v-0.15v-0.14v-0.15v-0.15v-0.15v-0.15v-0.15v-0.15v-0.15v-0.15v-0.15v-0.15
		v-0.15v-0.15v-0.15v-0.15v-0.15v-0.15v-0.15v-0.15v-0.15v-0.15v-0.15v-0.15v-0.15v-0.15v-0.15v-0.15v-0.15v-0.15v-0.15v-0.15v-0.15
		v-0.15v-0.15v-0.15v-0.15v-0.15v-0.15v-0.15v-0.15v-0.15v-0.15v-0.15v-0.15v-0.15v-0.15v-0.15v-0.15v-0.15v-0.15v-0.15v-0.15v-0.15
		v-0.15v-0.15v-0.15v-0.15v-0.15v-0.15v-0.15v-0.15v-0.15v-0.15v-0.15v-0.15v-0.15v-0.15v-0.15v-0.15v-0.15v-0.15v-0.15v-0.15v-0.15
		v-0.15v-0.15v-0.15v-0.15v-0.15v-0.15v-0.15v-0.15v-0.15v-0.15v-0.15v-0.15v-0.15v-0.15v-0.15v-0.15v-0.15v-0.15v-0.15v-0.15v-0.15
		v-0.15v-0.15v-0.15v-0.15v-0.15v-0.15v-0.15v-0.15v-0.15v-0.15v-0.15v-0.15v-0.15v-0.15v-0.15v-0.15v-0.15v-0.15v-0.15v-0.15v-0.15
		v-0.15v-0.15v-0.15v-0.15v-0.15v-0.15v-0.15v-0.15v-0.15v-0.15v-0.14v-0.15v-0.15v-0.15v-0.14v-0.15v-0.14v-0.15v-0.14v-0.15v-0.14
		v-0.14v-0.14v-0.15v-0.14v-0.14v-0.14v-0.14v-0.14v-0.14v-0.14v-0.14v-0.14v-0.14v-0.14v-0.14v-0.14v-0.14v-0.14v-0.14v-0.14v-0.14
		v-0.14v-0.14v-0.14v-0.14v-0.14v-0.14v-0.14v-0.14v-0.14v-0.14v-0.14v-0.14v-0.14v-0.14v-0.14v-0.14v-0.14v-0.14v-0.14v-0.14v-0.14
		v-0.14v-0.13v-0.14V387v-0.13v-0.13v-0.14v-0.13v-0.13v-0.13v-0.13v-0.13v-0.13v-0.13v-0.13v-0.13v-0.13v-0.13v-0.13v-0.13v-0.13
		v-0.13v-0.13v-0.13v-0.13v-0.13v-0.13v-0.13v-0.13v-0.13v-0.13v-0.13v-0.13v-0.13v-0.13v-0.13v-0.13v-0.12v-0.13v-0.12v-0.12v-0.13
		v-0.12v-0.12v-0.12v-0.12v-0.12v-0.12v-0.12v-0.12v-0.12v-0.12v-0.12v-0.12v-0.12v-0.12v-0.12v-0.12v-0.12v-0.12v-0.12v-0.12v-0.12
		v-0.12v-0.11v-0.12v-0.11v-0.12v-0.11v-0.11v-0.11v-0.11v-0.11v-0.11v-0.11v-0.11v-0.11v-0.11v-0.11v-0.11v-0.11v-0.11v-0.11v-0.11
		v-0.11v-0.11v-0.11v-0.11v-0.11v-0.11v-0.1v-0.11v-0.1v-0.1v-0.1v-0.1v-0.1v-0.1v-0.1v-0.1v-0.1v-0.1v-0.1v-0.1v-0.1v-0.1v-0.1
		v-0.1v-0.1v-0.1v-0.1v-0.09v-0.1v-0.09v-0.1v-0.09v-0.09v-0.09v-0.09v-0.09v-0.09v-0.09v-0.09v-0.09v-0.09v-0.09v-0.09v-0.09v-0.09
		v-0.09v-0.09v-0.08v-0.09v-0.08v-0.08v-0.08v-0.08v-0.08v-0.08v-0.08v-0.08v-0.08v-0.08v-0.08v-0.08v-0.08v-0.08v-0.08v-0.08v-0.07
		v-0.08v-0.07v-0.08v-0.07v-0.07v-0.07v-0.07v-0.07v-0.07v-0.07v-0.07v-0.07v-0.07v-0.07v-0.07v-0.07v-0.06v-0.07v-0.06v-0.07v-0.06
		v-0.06v-0.06v-0.06v-0.06v-0.06v-0.06v-0.06v-0.06v-0.06v-0.06v-0.06v-0.06v-0.05v-0.06v-0.05v-0.05v-0.05v-0.05v-0.05v-0.05v-0.05
		v-0.05v-0.05v-0.05v-0.05v-0.05v-0.05v-0.05v-0.04v-0.04v-0.05v-0.04v-0.04v-0.04v-0.04v-0.04v-0.04v-0.04v-0.04v-0.04v-0.04v-0.04
		v-0.04v-0.03v-0.04v-0.03v-0.03v-0.03v-0.03v-0.03v-0.03v-0.03v-0.03v-0.03v-0.03v-0.03v-0.03v-0.02v-0.02v-0.02v-0.02v-0.02v-0.02
		v-0.02v-0.02v-0.02v-0.02v-0.02v-0.02v-0.02v-0.02v-0.01v-0.01v-0.01v-0.01v-0.01v-0.01v-0.01v-0.01v-0.01v-0.01v-0.01v-0.01v-0.01
		v0v0v0v0l0,0C366.67,348.26,381.59,333.33,400,333.33z"/>
</g>
</svg>
